<?xml version="1.0" encoding="UTF-8" standalone="no"?>
<!DOCTYPE svg PUBLIC "-//W3C//DTD SVG 1.1//EN"
 "http://www.w3.org/Graphics/SVG/1.1/DTD/svg11.dtd">
<!-- Generated by graphviz version 2.40.1 (20161225.0304)
 -->
<!-- Title: dependencies Pages: 1 -->
<svg width="510pt" height="211pt"
 viewBox="0.00 0.00 510.00 211.00" xmlns="http://www.w3.org/2000/svg" xmlns:xlink="http://www.w3.org/1999/xlink">
<g id="graph0" class="graph" transform="scale(1 1) rotate(0) translate(4 207)">
<title>dependencies</title>
<polygon fill="#ffffff" stroke="transparent" points="-4,4 -4,-207 506,-207 506,4 -4,4"/>
<text text-anchor="start" x="230.0091" y="-42.4" font-family="sans-serif" font-weight="bold" font-size="14.00" fill="#000000">Legend</text>
<polygon fill="#ffffb3" stroke="transparent" points="17,-10 17,-30 37,-30 37,-10 17,-10"/>
<text text-anchor="start" x="40.629" y="-15.4" font-family="sans-serif" font-size="14.00" fill="#000000"> &#160;Declarations</text>
<polygon fill="#8dd3c7" stroke="transparent" points="130,-10 130,-30 150,-30 150,-10 130,-10"/>
<text text-anchor="start" x="153.7251" y="-15.4" font-family="sans-serif" font-size="14.00" fill="#000000"> &#160;Module</text>
<polygon fill="#80b1d3" stroke="transparent" points="216,-10 216,-30 236,-30 236,-10 216,-10"/>
<text text-anchor="start" x="239.7812" y="-15.4" font-family="sans-serif" font-size="14.00" fill="#000000"> &#160;Bootstrap</text>
<polygon fill="#fdb462" stroke="transparent" points="313,-10 313,-30 333,-30 333,-10 313,-10"/>
<text text-anchor="start" x="336.6732" y="-15.4" font-family="sans-serif" font-size="14.00" fill="#000000"> &#160;Providers</text>
<polygon fill="#fb8072" stroke="transparent" points="409,-10 409,-30 429,-30 429,-10 409,-10"/>
<text text-anchor="start" x="432.7258" y="-15.4" font-family="sans-serif" font-size="14.00" fill="#000000"> &#160;Exports</text>
<g id="clust1" class="cluster">
<title>cluster_ThemeModule</title>
<polygon fill="none" stroke="#000000" stroke-dasharray="1,5" points="8,-70 8,-195 494,-195 494,-70 8,-70"/>
</g>
<g id="clust2" class="cluster">
<title>cluster_ThemeModule_declarations</title>
<polygon fill="none" stroke="#000000" points="184,-78 184,-130 486,-130 486,-78 184,-78"/>
</g>
<g id="clust5" class="cluster">
<title>cluster_ThemeModule_imports</title>
<polygon fill="none" stroke="#000000" points="16,-78 16,-130 176,-130 176,-78 16,-78"/>
</g>
<!-- ColorsComponent -->
<g id="node1" class="node">
<title>ColorsComponent</title>
<polygon fill="#ffffb3" stroke="#000000" points="478.1653,-122 359.8347,-122 359.8347,-86 478.1653,-86 478.1653,-122"/>
<text text-anchor="middle" x="419" y="-99.8" font-family="Times,serif" font-size="14.00" fill="#000000">ColorsComponent</text>
</g>
<!-- ThemeModule -->
<g id="node3" class="node">
<title>ThemeModule</title>
<polygon fill="#8dd3c7" stroke="#000000" points="316.4231,-187 313.4231,-191 292.4231,-191 289.4231,-187 217.5769,-187 217.5769,-151 316.4231,-151 316.4231,-187"/>
<text text-anchor="middle" x="267" y="-164.8" font-family="Times,serif" font-size="14.00" fill="#000000">ThemeModule</text>
</g>
<!-- ColorsComponent&#45;&gt;ThemeModule -->
<g id="edge1" class="edge">
<title>ColorsComponent&#45;&gt;ThemeModule</title>
<path fill="none" stroke="#000000" d="M419,-122.1061C419,-141.3391 419,-169 419,-169 419,-169 326.35,-169 326.35,-169"/>
<polygon fill="#000000" stroke="#000000" points="326.3501,-165.5001 316.35,-169 326.35,-172.5001 326.3501,-165.5001"/>
</g>
<!-- TypographyComponent -->
<g id="node2" class="node">
<title>TypographyComponent</title>
<polygon fill="#ffffb3" stroke="#000000" points="341.7604,-122 192.2396,-122 192.2396,-86 341.7604,-86 341.7604,-122"/>
<text text-anchor="middle" x="267" y="-99.8" font-family="Times,serif" font-size="14.00" fill="#000000">TypographyComponent</text>
</g>
<!-- TypographyComponent&#45;&gt;ThemeModule -->
<g id="edge2" class="edge">
<title>TypographyComponent&#45;&gt;ThemeModule</title>
<path fill="none" stroke="#000000" d="M267,-122.1061C267,-122.1061 267,-140.991 267,-140.991"/>
<polygon fill="#000000" stroke="#000000" points="263.5001,-140.9909 267,-150.991 270.5001,-140.991 263.5001,-140.9909"/>
</g>
<!-- ThemeRoutingModule -->
<g id="node4" class="node">
<title>ThemeRoutingModule</title>
<polygon fill="#8dd3c7" stroke="#000000" points="167.5407,-122 164.5407,-126 143.5407,-126 140.5407,-122 24.4593,-122 24.4593,-86 167.5407,-86 167.5407,-122"/>
<text text-anchor="middle" x="96" y="-99.8" font-family="Times,serif" font-size="14.00" fill="#000000">ThemeRoutingModule</text>
</g>
<!-- ThemeRoutingModule&#45;&gt;ThemeModule -->
<g id="edge3" class="edge">
<title>ThemeRoutingModule&#45;&gt;ThemeModule</title>
<path fill="none" stroke="#000000" d="M96,-122.1061C96,-141.3391 96,-169 96,-169 96,-169 207.5397,-169 207.5397,-169"/>
<polygon fill="#000000" stroke="#000000" points="207.5397,-172.5001 217.5397,-169 207.5397,-165.5001 207.5397,-172.5001"/>
</g>
</g>
</svg>
