<?xml version="1.0" encoding="UTF-8" standalone="no"?>
<!DOCTYPE svg PUBLIC "-//W3C//DTD SVG 1.1//EN"
 "http://www.w3.org/Graphics/SVG/1.1/DTD/svg11.dtd">
<!-- Generated by graphviz version 2.40.1 (20161225.0304)
 -->
<!-- Title: dependencies Pages: 1 -->
<svg width="1925pt" height="284pt"
 viewBox="0.00 0.00 1925.00 284.00" xmlns="http://www.w3.org/2000/svg" xmlns:xlink="http://www.w3.org/1999/xlink">
<g id="graph0" class="graph" transform="scale(1 1) rotate(0) translate(4 280)">
<title>dependencies</title>
<polygon fill="#ffffff" stroke="transparent" points="-4,4 -4,-280 1921,-280 1921,4 -4,4"/>
<text text-anchor="start" x="937.5091" y="-42.4" font-family="sans-serif" font-weight="bold" font-size="14.00" fill="#000000">Legend</text>
<polygon fill="#ffffb3" stroke="transparent" points="724.5,-10 724.5,-30 744.5,-30 744.5,-10 724.5,-10"/>
<text text-anchor="start" x="748.129" y="-15.4" font-family="sans-serif" font-size="14.00" fill="#000000"> &#160;Declarations</text>
<polygon fill="#8dd3c7" stroke="transparent" points="837.5,-10 837.5,-30 857.5,-30 857.5,-10 837.5,-10"/>
<text text-anchor="start" x="861.2251" y="-15.4" font-family="sans-serif" font-size="14.00" fill="#000000"> &#160;Module</text>
<polygon fill="#80b1d3" stroke="transparent" points="923.5,-10 923.5,-30 943.5,-30 943.5,-10 923.5,-10"/>
<text text-anchor="start" x="947.2812" y="-15.4" font-family="sans-serif" font-size="14.00" fill="#000000"> &#160;Bootstrap</text>
<polygon fill="#fdb462" stroke="transparent" points="1020.5,-10 1020.5,-30 1040.5,-30 1040.5,-10 1020.5,-10"/>
<text text-anchor="start" x="1044.1732" y="-15.4" font-family="sans-serif" font-size="14.00" fill="#000000"> &#160;Providers</text>
<polygon fill="#fb8072" stroke="transparent" points="1116.5,-10 1116.5,-30 1136.5,-30 1136.5,-10 1116.5,-10"/>
<text text-anchor="start" x="1140.2258" y="-15.4" font-family="sans-serif" font-size="14.00" fill="#000000"> &#160;Exports</text>
<g id="clust1" class="cluster">
<title>cluster_AppModule</title>
<polygon fill="none" stroke="#000000" stroke-dasharray="1,5" points="8,-70 8,-268 1909,-268 1909,-70 8,-70"/>
</g>
<g id="clust2" class="cluster">
<title>cluster_AppModule_declarations</title>
<polygon fill="none" stroke="#000000" points="1064,-78 1064,-130 1901,-130 1901,-78 1064,-78"/>
</g>
<g id="clust9" class="cluster">
<title>cluster_AppModule_imports</title>
<polygon fill="none" stroke="#000000" points="628,-78 628,-130 1056,-130 1056,-78 628,-78"/>
</g>
<g id="clust11" class="cluster">
<title>cluster_AppModule_bootstrap</title>
<polygon fill="none" stroke="#000000" points="998,-208 998,-260 1122,-260 1122,-208 998,-208"/>
</g>
<g id="clust12" class="cluster">
<title>cluster_AppModule_providers</title>
<polygon fill="none" stroke="#000000" points="16,-78 16,-130 620,-130 620,-78 16,-78"/>
</g>
<!-- AppComponent -->
<g id="node1" class="node">
<title>AppComponent</title>
<polygon fill="#ffffb3" stroke="#000000" points="1892.9399,-122 1787.0601,-122 1787.0601,-86 1892.9399,-86 1892.9399,-122"/>
<text text-anchor="middle" x="1840" y="-99.8" font-family="Times,serif" font-size="14.00" fill="#000000">AppComponent</text>
</g>
<!-- AppModule -->
<g id="node7" class="node">
<title>AppModule</title>
<polygon fill="#8dd3c7" stroke="#000000" points="1101.6571,-187 1098.6571,-191 1077.6571,-191 1074.6571,-187 1018.3429,-187 1018.3429,-151 1101.6571,-151 1101.6571,-187"/>
<text text-anchor="middle" x="1060" y="-164.8" font-family="Times,serif" font-size="14.00" fill="#000000">AppModule</text>
</g>
<!-- AppComponent&#45;&gt;AppModule -->
<g id="edge1" class="edge">
<title>AppComponent&#45;&gt;AppModule</title>
<path fill="none" stroke="#000000" d="M1840,-122.2479C1840,-145.0179 1840,-181 1840,-181 1840,-181 1111.6604,-181 1111.6604,-181"/>
<polygon fill="#000000" stroke="#000000" points="1111.6605,-177.5001 1101.6604,-181 1111.6604,-184.5001 1111.6605,-177.5001"/>
</g>
<!-- DefaultLayoutComponent -->
<g id="node2" class="node">
<title>DefaultLayoutComponent</title>
<polygon fill="#ffffb3" stroke="#000000" points="1769.4678,-122 1606.5322,-122 1606.5322,-86 1769.4678,-86 1769.4678,-122"/>
<text text-anchor="middle" x="1688" y="-99.8" font-family="Times,serif" font-size="14.00" fill="#000000">DefaultLayoutComponent</text>
</g>
<!-- DefaultLayoutComponent&#45;&gt;AppModule -->
<g id="edge2" class="edge">
<title>DefaultLayoutComponent&#45;&gt;AppModule</title>
<path fill="none" stroke="#000000" d="M1688,-122.2843C1688,-143.3211 1688,-175 1688,-175 1688,-175 1111.6912,-175 1111.6912,-175"/>
<polygon fill="#000000" stroke="#000000" points="1111.6912,-171.5001 1101.6912,-175 1111.6911,-178.5001 1111.6912,-171.5001"/>
</g>
<!-- LoginComponent -->
<g id="node3" class="node">
<title>LoginComponent</title>
<polygon fill="#ffffb3" stroke="#000000" points="1588.2758,-122 1473.7242,-122 1473.7242,-86 1588.2758,-86 1588.2758,-122"/>
<text text-anchor="middle" x="1531" y="-99.8" font-family="Times,serif" font-size="14.00" fill="#000000">LoginComponent</text>
</g>
<!-- LoginComponent&#45;&gt;AppModule -->
<g id="edge3" class="edge">
<title>LoginComponent&#45;&gt;AppModule</title>
<path fill="none" stroke="#000000" d="M1531,-122.1061C1531,-141.3391 1531,-169 1531,-169 1531,-169 1111.7981,-169 1111.7981,-169"/>
<polygon fill="#000000" stroke="#000000" points="1111.7981,-165.5001 1101.7981,-169 1111.7981,-172.5001 1111.7981,-165.5001"/>
</g>
<!-- P404Component -->
<g id="node4" class="node">
<title>P404Component</title>
<polygon fill="#ffffb3" stroke="#000000" points="1456.1151,-122 1345.8849,-122 1345.8849,-86 1456.1151,-86 1456.1151,-122"/>
<text text-anchor="middle" x="1401" y="-99.8" font-family="Times,serif" font-size="14.00" fill="#000000">P404Component</text>
</g>
<!-- P404Component&#45;&gt;AppModule -->
<g id="edge4" class="edge">
<title>P404Component&#45;&gt;AppModule</title>
<path fill="none" stroke="#000000" d="M1401,-122.0225C1401,-139.3734 1401,-163 1401,-163 1401,-163 1111.8133,-163 1111.8133,-163"/>
<polygon fill="#000000" stroke="#000000" points="1111.8133,-159.5001 1101.8133,-163 1111.8133,-166.5001 1111.8133,-159.5001"/>
</g>
<!-- P500Component -->
<g id="node5" class="node">
<title>P500Component</title>
<polygon fill="#ffffb3" stroke="#000000" points="1328.1151,-122 1217.8849,-122 1217.8849,-86 1328.1151,-86 1328.1151,-122"/>
<text text-anchor="middle" x="1273" y="-99.8" font-family="Times,serif" font-size="14.00" fill="#000000">P500Component</text>
</g>
<!-- P500Component&#45;&gt;AppModule -->
<g id="edge5" class="edge">
<title>P500Component&#45;&gt;AppModule</title>
<path fill="none" stroke="#000000" d="M1273,-122.2396C1273,-137.5706 1273,-157 1273,-157 1273,-157 1111.8278,-157 1111.8278,-157"/>
<polygon fill="#000000" stroke="#000000" points="1111.8278,-153.5001 1101.8278,-157 1111.8278,-160.5001 1111.8278,-153.5001"/>
</g>
<!-- RegisterComponent -->
<g id="node6" class="node">
<title>RegisterComponent</title>
<polygon fill="#ffffb3" stroke="#000000" points="1199.9846,-122 1072.0154,-122 1072.0154,-86 1199.9846,-86 1199.9846,-122"/>
<text text-anchor="middle" x="1136" y="-99.8" font-family="Times,serif" font-size="14.00" fill="#000000">RegisterComponent</text>
</g>
<!-- RegisterComponent&#45;&gt;AppModule -->
<g id="edge6" class="edge">
<title>RegisterComponent&#45;&gt;AppModule</title>
<path fill="none" stroke="#000000" d="M1086.918,-122.1061C1086.918,-122.1061 1086.918,-140.991 1086.918,-140.991"/>
<polygon fill="#000000" stroke="#000000" points="1083.418,-140.9909 1086.918,-150.991 1090.418,-140.991 1083.418,-140.9909"/>
</g>
<!-- AppComponent  -->
<g id="node11" class="node">
<title>AppComponent </title>
<polygon fill="#80b1d3" stroke="#000000" points="1114.439,-252 1005.561,-252 1005.561,-216 1114.439,-216 1114.439,-252"/>
<text text-anchor="middle" x="1060" y="-229.8" font-family="Times,serif" font-size="14.00" fill="#000000">AppComponent </text>
</g>
<!-- AppModule&#45;&gt;AppComponent  -->
<g id="edge10" class="edge">
<title>AppModule&#45;&gt;AppComponent </title>
<path fill="none" stroke="#000000" stroke-dasharray="1,5" d="M1060,-187.1061C1060,-187.1061 1060,-205.991 1060,-205.991"/>
<polygon fill="#000000" stroke="#000000" points="1056.5001,-205.9909 1060,-215.991 1063.5001,-205.991 1056.5001,-205.9909"/>
</g>
<!-- AppRoutingModule -->
<g id="node8" class="node">
<title>AppRoutingModule</title>
<polygon fill="#8dd3c7" stroke="#000000" points="1048.2744,-122 1045.2744,-126 1024.2744,-126 1021.2744,-122 919.7256,-122 919.7256,-86 1048.2744,-86 1048.2744,-122"/>
<text text-anchor="middle" x="984" y="-99.8" font-family="Times,serif" font-size="14.00" fill="#000000">AppRoutingModule</text>
</g>
<!-- AppRoutingModule&#45;&gt;AppModule -->
<g id="edge7" class="edge">
<title>AppRoutingModule&#45;&gt;AppModule</title>
<path fill="none" stroke="#000000" d="M1033.2795,-122.1061C1033.2795,-122.1061 1033.2795,-140.991 1033.2795,-140.991"/>
<polygon fill="#000000" stroke="#000000" points="1029.7795,-140.9909 1033.2795,-150.991 1036.7795,-140.991 1029.7795,-140.9909"/>
</g>
<!-- ConvocatoriasModule -->
<g id="node9" class="node">
<title>ConvocatoriasModule</title>
<polygon fill="#8dd3c7" stroke="#000000" points="901.4172,-122 898.4172,-126 877.4172,-126 874.4172,-122 760.5828,-122 760.5828,-86 901.4172,-86 901.4172,-122"/>
<text text-anchor="middle" x="831" y="-99.8" font-family="Times,serif" font-size="14.00" fill="#000000">ConvocatoriasModule</text>
</g>
<!-- ConvocatoriasModule&#45;&gt;AppModule -->
<g id="edge8" class="edge">
<title>ConvocatoriasModule&#45;&gt;AppModule</title>
<path fill="none" stroke="#000000" d="M831,-122.2396C831,-137.5706 831,-157 831,-157 831,-157 1008.2641,-157 1008.2641,-157"/>
<polygon fill="#000000" stroke="#000000" points="1008.2642,-160.5001 1018.2641,-157 1008.2641,-153.5001 1008.2642,-160.5001"/>
</g>
<!-- ServicesModule -->
<g id="node10" class="node">
<title>ServicesModule</title>
<polygon fill="#8dd3c7" stroke="#000000" points="742.472,-122 739.472,-126 718.472,-126 715.472,-122 635.528,-122 635.528,-86 742.472,-86 742.472,-122"/>
<text text-anchor="middle" x="689" y="-99.8" font-family="Times,serif" font-size="14.00" fill="#000000">ServicesModule</text>
</g>
<!-- ServicesModule&#45;&gt;AppModule -->
<g id="edge9" class="edge">
<title>ServicesModule&#45;&gt;AppModule</title>
<path fill="none" stroke="#000000" d="M689,-122.0225C689,-139.3734 689,-163 689,-163 689,-163 1008.1628,-163 1008.1628,-163"/>
<polygon fill="#000000" stroke="#000000" points="1008.1628,-166.5001 1018.1628,-163 1008.1627,-159.5001 1008.1628,-166.5001"/>
</g>
<!-- AuthInterceptor -->
<g id="node12" class="node">
<title>AuthInterceptor</title>
<ellipse fill="#fdb462" stroke="#000000" cx="539" cy="-104" rx="72.9121" ry="18"/>
<text text-anchor="middle" x="539" y="-99.8" font-family="Times,serif" font-size="14.00" fill="#000000">AuthInterceptor</text>
</g>
<!-- AuthInterceptor&#45;&gt;AppModule -->
<g id="edge11" class="edge">
<title>AuthInterceptor&#45;&gt;AppModule</title>
<path fill="none" stroke="#000000" d="M539,-122.1061C539,-141.3391 539,-169 539,-169 539,-169 1008.2451,-169 1008.2451,-169"/>
<polygon fill="#000000" stroke="#000000" points="1008.2451,-172.5001 1018.2451,-169 1008.245,-165.5001 1008.2451,-172.5001"/>
</g>
<!-- HojaVidaService -->
<g id="node13" class="node">
<title>HojaVidaService</title>
<ellipse fill="#fdb462" stroke="#000000" cx="371" cy="-104" rx="77.5646" ry="18"/>
<text text-anchor="middle" x="371" y="-99.8" font-family="Times,serif" font-size="14.00" fill="#000000">HojaVidaService</text>
</g>
<!-- HojaVidaService&#45;&gt;AppModule -->
<g id="edge12" class="edge">
<title>HojaVidaService&#45;&gt;AppModule</title>
<path fill="none" stroke="#000000" d="M371,-122.2843C371,-143.3211 371,-175 371,-175 371,-175 1008.1947,-175 1008.1947,-175"/>
<polygon fill="#000000" stroke="#000000" points="1008.1947,-178.5001 1018.1947,-175 1008.1947,-171.5001 1008.1947,-178.5001"/>
</g>
<!-- ValidacionFormularioService -->
<g id="node14" class="node">
<title>ValidacionFormularioService</title>
<ellipse fill="#fdb462" stroke="#000000" cx="150" cy="-104" rx="125.6189" ry="18"/>
<text text-anchor="middle" x="150" y="-99.8" font-family="Times,serif" font-size="14.00" fill="#000000">ValidacionFormularioService</text>
</g>
<!-- ValidacionFormularioService&#45;&gt;AppModule -->
<g id="edge13" class="edge">
<title>ValidacionFormularioService&#45;&gt;AppModule</title>
<path fill="none" stroke="#000000" d="M150,-122.2479C150,-145.0179 150,-181 150,-181 150,-181 1008.2347,-181 1008.2347,-181"/>
<polygon fill="#000000" stroke="#000000" points="1008.2347,-184.5001 1018.2347,-181 1008.2347,-177.5001 1008.2347,-184.5001"/>
</g>
</g>
</svg>
