<?xml version="1.0" encoding="UTF-8" standalone="no"?>
<!DOCTYPE svg PUBLIC "-//W3C//DTD SVG 1.1//EN"
 "http://www.w3.org/Graphics/SVG/1.1/DTD/svg11.dtd">
<!-- Generated by graphviz version 2.40.1 (20161225.0304)
 -->
<!-- Title: dependencies Pages: 1 -->
<svg width="695pt" height="211pt"
 viewBox="0.00 0.00 695.00 211.00" xmlns="http://www.w3.org/2000/svg" xmlns:xlink="http://www.w3.org/1999/xlink">
<g id="graph0" class="graph" transform="scale(1 1) rotate(0) translate(4 207)">
<title>dependencies</title>
<polygon fill="#ffffff" stroke="transparent" points="-4,4 -4,-207 691,-207 691,4 -4,4"/>
<text text-anchor="start" x="322.5091" y="-42.4" font-family="sans-serif" font-weight="bold" font-size="14.00" fill="#000000">Legend</text>
<polygon fill="#ffffb3" stroke="transparent" points="109.5,-10 109.5,-30 129.5,-30 129.5,-10 109.5,-10"/>
<text text-anchor="start" x="133.129" y="-15.4" font-family="sans-serif" font-size="14.00" fill="#000000"> &#160;Declarations</text>
<polygon fill="#8dd3c7" stroke="transparent" points="222.5,-10 222.5,-30 242.5,-30 242.5,-10 222.5,-10"/>
<text text-anchor="start" x="246.2251" y="-15.4" font-family="sans-serif" font-size="14.00" fill="#000000"> &#160;Module</text>
<polygon fill="#80b1d3" stroke="transparent" points="308.5,-10 308.5,-30 328.5,-30 328.5,-10 308.5,-10"/>
<text text-anchor="start" x="332.2812" y="-15.4" font-family="sans-serif" font-size="14.00" fill="#000000"> &#160;Bootstrap</text>
<polygon fill="#fdb462" stroke="transparent" points="405.5,-10 405.5,-30 425.5,-30 425.5,-10 405.5,-10"/>
<text text-anchor="start" x="429.1732" y="-15.4" font-family="sans-serif" font-size="14.00" fill="#000000"> &#160;Providers</text>
<polygon fill="#fb8072" stroke="transparent" points="501.5,-10 501.5,-30 521.5,-30 521.5,-10 501.5,-10"/>
<text text-anchor="start" x="525.2258" y="-15.4" font-family="sans-serif" font-size="14.00" fill="#000000"> &#160;Exports</text>
<g id="clust1" class="cluster">
<title>cluster_ButtonsModule</title>
<polygon fill="none" stroke="#000000" stroke-dasharray="1,5" points="8,-70 8,-195 679,-195 679,-70 8,-70"/>
</g>
<g id="clust2" class="cluster">
<title>cluster_ButtonsModule_declarations</title>
<polygon fill="none" stroke="#000000" points="188,-78 188,-130 671,-130 671,-78 188,-78"/>
</g>
<g id="clust6" class="cluster">
<title>cluster_ButtonsModule_imports</title>
<polygon fill="none" stroke="#000000" points="16,-78 16,-130 180,-130 180,-78 16,-78"/>
</g>
<!-- BrandButtonsComponent -->
<g id="node1" class="node">
<title>BrandButtonsComponent</title>
<polygon fill="#ffffb3" stroke="#000000" points="662.6066,-122 503.3934,-122 503.3934,-86 662.6066,-86 662.6066,-122"/>
<text text-anchor="middle" x="583" y="-99.8" font-family="Times,serif" font-size="14.00" fill="#000000">BrandButtonsComponent</text>
</g>
<!-- ButtonsModule -->
<g id="node4" class="node">
<title>ButtonsModule</title>
<polygon fill="#8dd3c7" stroke="#000000" points="397.6123,-187 394.6123,-191 373.6123,-191 370.6123,-187 294.3877,-187 294.3877,-151 397.6123,-151 397.6123,-187"/>
<text text-anchor="middle" x="346" y="-164.8" font-family="Times,serif" font-size="14.00" fill="#000000">ButtonsModule</text>
</g>
<!-- BrandButtonsComponent&#45;&gt;ButtonsModule -->
<g id="edge1" class="edge">
<title>BrandButtonsComponent&#45;&gt;ButtonsModule</title>
<path fill="none" stroke="#000000" d="M583,-122.1061C583,-141.3391 583,-169 583,-169 583,-169 407.7178,-169 407.7178,-169"/>
<polygon fill="#000000" stroke="#000000" points="407.7178,-165.5001 397.7178,-169 407.7178,-172.5001 407.7178,-165.5001"/>
</g>
<!-- ButtonsComponent -->
<g id="node2" class="node">
<title>ButtonsComponent</title>
<polygon fill="#ffffb3" stroke="#000000" points="485.3948,-122 360.6052,-122 360.6052,-86 485.3948,-86 485.3948,-122"/>
<text text-anchor="middle" x="423" y="-99.8" font-family="Times,serif" font-size="14.00" fill="#000000">ButtonsComponent</text>
</g>
<!-- ButtonsComponent&#45;&gt;ButtonsModule -->
<g id="edge2" class="edge">
<title>ButtonsComponent&#45;&gt;ButtonsModule</title>
<path fill="none" stroke="#000000" d="M379.0544,-122.1061C379.0544,-122.1061 379.0544,-140.991 379.0544,-140.991"/>
<polygon fill="#000000" stroke="#000000" points="375.5544,-140.9909 379.0544,-150.991 382.5544,-140.991 375.5544,-140.9909"/>
</g>
<!-- DropdownsComponent -->
<g id="node3" class="node">
<title>DropdownsComponent</title>
<polygon fill="#ffffb3" stroke="#000000" points="342.1512,-122 195.8488,-122 195.8488,-86 342.1512,-86 342.1512,-122"/>
<text text-anchor="middle" x="269" y="-99.8" font-family="Times,serif" font-size="14.00" fill="#000000">DropdownsComponent</text>
</g>
<!-- DropdownsComponent&#45;&gt;ButtonsModule -->
<g id="edge3" class="edge">
<title>DropdownsComponent&#45;&gt;ButtonsModule</title>
<path fill="none" stroke="#000000" d="M318.3846,-122.1061C318.3846,-122.1061 318.3846,-140.991 318.3846,-140.991"/>
<polygon fill="#000000" stroke="#000000" points="314.8847,-140.9909 318.3846,-150.991 321.8847,-140.991 314.8847,-140.9909"/>
</g>
<!-- ButtonsRoutingModule -->
<g id="node5" class="node">
<title>ButtonsRoutingModule</title>
<polygon fill="#8dd3c7" stroke="#000000" points="172.2302,-122 169.2302,-126 148.2302,-126 145.2302,-122 23.7698,-122 23.7698,-86 172.2302,-86 172.2302,-122"/>
<text text-anchor="middle" x="98" y="-99.8" font-family="Times,serif" font-size="14.00" fill="#000000">ButtonsRoutingModule</text>
</g>
<!-- ButtonsRoutingModule&#45;&gt;ButtonsModule -->
<g id="edge4" class="edge">
<title>ButtonsRoutingModule&#45;&gt;ButtonsModule</title>
<path fill="none" stroke="#000000" d="M98,-122.1061C98,-141.3391 98,-169 98,-169 98,-169 284.3129,-169 284.3129,-169"/>
<polygon fill="#000000" stroke="#000000" points="284.313,-172.5001 294.3129,-169 284.3129,-165.5001 284.313,-172.5001"/>
</g>
</g>
</svg>
