<?xml version="1.0" encoding="UTF-8" standalone="no"?>
<!DOCTYPE svg PUBLIC "-//W3C//DTD SVG 1.1//EN"
 "http://www.w3.org/Graphics/SVG/1.1/DTD/svg11.dtd">
<!-- Generated by graphviz version 2.40.1 (20161225.0304)
 -->
<!-- Title: dependencies Pages: 1 -->
<svg width="1388pt" height="211pt"
 viewBox="0.00 0.00 1388.00 211.00" xmlns="http://www.w3.org/2000/svg" xmlns:xlink="http://www.w3.org/1999/xlink">
<g id="graph0" class="graph" transform="scale(1 1) rotate(0) translate(4 207)">
<title>dependencies</title>
<polygon fill="#ffffff" stroke="transparent" points="-4,4 -4,-207 1384,-207 1384,4 -4,4"/>
<text text-anchor="start" x="669.0091" y="-42.4" font-family="sans-serif" font-weight="bold" font-size="14.00" fill="#000000">Legend</text>
<polygon fill="#ffffb3" stroke="transparent" points="456,-10 456,-30 476,-30 476,-10 456,-10"/>
<text text-anchor="start" x="479.629" y="-15.4" font-family="sans-serif" font-size="14.00" fill="#000000"> &#160;Declarations</text>
<polygon fill="#8dd3c7" stroke="transparent" points="569,-10 569,-30 589,-30 589,-10 569,-10"/>
<text text-anchor="start" x="592.7251" y="-15.4" font-family="sans-serif" font-size="14.00" fill="#000000"> &#160;Module</text>
<polygon fill="#80b1d3" stroke="transparent" points="655,-10 655,-30 675,-30 675,-10 655,-10"/>
<text text-anchor="start" x="678.7812" y="-15.4" font-family="sans-serif" font-size="14.00" fill="#000000"> &#160;Bootstrap</text>
<polygon fill="#fdb462" stroke="transparent" points="752,-10 752,-30 772,-30 772,-10 752,-10"/>
<text text-anchor="start" x="775.6732" y="-15.4" font-family="sans-serif" font-size="14.00" fill="#000000"> &#160;Providers</text>
<polygon fill="#fb8072" stroke="transparent" points="848,-10 848,-30 868,-30 868,-10 848,-10"/>
<text text-anchor="start" x="871.7258" y="-15.4" font-family="sans-serif" font-size="14.00" fill="#000000"> &#160;Exports</text>
<g id="clust1" class="cluster">
<title>cluster_ServicesModule</title>
<polygon fill="none" stroke="#000000" stroke-dasharray="1,5" points="8,-70 8,-195 1372,-195 1372,-70 8,-70"/>
</g>
<g id="clust6" class="cluster">
<title>cluster_ServicesModule_providers</title>
<polygon fill="none" stroke="#000000" points="16,-78 16,-130 1364,-130 1364,-78 16,-78"/>
</g>
<!-- ConfigService -->
<g id="node1" class="node">
<title>ConfigService</title>
<ellipse fill="#fdb462" stroke="#000000" cx="1289" cy="-104" rx="66.6325" ry="18"/>
<text text-anchor="middle" x="1289" y="-99.8" font-family="Times,serif" font-size="14.00" fill="#000000">ConfigService</text>
</g>
<!-- ServicesModule -->
<g id="node8" class="node">
<title>ServicesModule</title>
<polygon fill="#8dd3c7" stroke="#000000" points="751.472,-187 748.472,-191 727.472,-191 724.472,-187 644.528,-187 644.528,-151 751.472,-151 751.472,-187"/>
<text text-anchor="middle" x="698" y="-164.8" font-family="Times,serif" font-size="14.00" fill="#000000">ServicesModule</text>
</g>
<!-- ConfigService&#45;&gt;ServicesModule -->
<g id="edge1" class="edge">
<title>ConfigService&#45;&gt;ServicesModule</title>
<path fill="none" stroke="#000000" d="M1289,-122.2921C1289,-144.2057 1289,-178 1289,-178 1289,-178 761.4897,-178 761.4897,-178"/>
<polygon fill="#000000" stroke="#000000" points="761.4897,-174.5001 751.4897,-178 761.4896,-181.5001 761.4897,-174.5001"/>
</g>
<!-- DatosSessionService -->
<g id="node2" class="node">
<title>DatosSessionService</title>
<ellipse fill="#fdb462" stroke="#000000" cx="1112" cy="-104" rx="92.049" ry="18"/>
<text text-anchor="middle" x="1112" y="-99.8" font-family="Times,serif" font-size="14.00" fill="#000000">DatosSessionService</text>
</g>
<!-- DatosSessionService&#45;&gt;ServicesModule -->
<g id="edge2" class="edge">
<title>DatosSessionService&#45;&gt;ServicesModule</title>
<path fill="none" stroke="#000000" d="M1112,-122.1061C1112,-141.3391 1112,-169 1112,-169 1112,-169 761.6988,-169 761.6988,-169"/>
<polygon fill="#000000" stroke="#000000" points="761.6989,-165.5001 751.6988,-169 761.6988,-172.5001 761.6989,-165.5001"/>
</g>
<!-- EvaluacionCuposService -->
<g id="node3" class="node">
<title>EvaluacionCuposService</title>
<ellipse fill="#fdb462" stroke="#000000" cx="894" cy="-104" rx="108.2279" ry="18"/>
<text text-anchor="middle" x="894" y="-99.8" font-family="Times,serif" font-size="14.00" fill="#000000">EvaluacionCuposService</text>
</g>
<!-- EvaluacionCuposService&#45;&gt;ServicesModule -->
<g id="edge3" class="edge">
<title>EvaluacionCuposService&#45;&gt;ServicesModule</title>
<path fill="none" stroke="#000000" d="M894,-122.027C894,-138.3976 894,-160 894,-160 894,-160 761.5579,-160 761.5579,-160"/>
<polygon fill="#000000" stroke="#000000" points="761.5579,-156.5001 751.5579,-160 761.5578,-163.5001 761.5579,-156.5001"/>
</g>
<!-- HelpersService -->
<g id="node4" class="node">
<title>HelpersService</title>
<ellipse fill="#fdb462" stroke="#000000" cx="698" cy="-104" rx="70.0384" ry="18"/>
<text text-anchor="middle" x="698" y="-99.8" font-family="Times,serif" font-size="14.00" fill="#000000">HelpersService</text>
</g>
<!-- HelpersService&#45;&gt;ServicesModule -->
<g id="edge4" class="edge">
<title>HelpersService&#45;&gt;ServicesModule</title>
<path fill="none" stroke="#000000" d="M698,-122.1061C698,-122.1061 698,-140.991 698,-140.991"/>
<polygon fill="#000000" stroke="#000000" points="694.5001,-140.9909 698,-150.991 701.5001,-140.991 694.5001,-140.9909"/>
</g>
<!-- InscrAspiranteService -->
<g id="node5" class="node">
<title>InscrAspiranteService</title>
<ellipse fill="#fdb462" stroke="#000000" cx="513" cy="-104" rx="96.6637" ry="18"/>
<text text-anchor="middle" x="513" y="-99.8" font-family="Times,serif" font-size="14.00" fill="#000000">InscrAspiranteService</text>
</g>
<!-- InscrAspiranteService&#45;&gt;ServicesModule -->
<g id="edge5" class="edge">
<title>InscrAspiranteService&#45;&gt;ServicesModule</title>
<path fill="none" stroke="#000000" d="M513,-122.027C513,-138.3976 513,-160 513,-160 513,-160 634.4903,-160 634.4903,-160"/>
<polygon fill="#000000" stroke="#000000" points="634.4904,-163.5001 644.4903,-160 634.4903,-156.5001 634.4904,-163.5001"/>
</g>
<!-- MensajeService -->
<g id="node6" class="node">
<title>MensajeService</title>
<ellipse fill="#fdb462" stroke="#000000" cx="325" cy="-104" rx="72.9082" ry="18"/>
<text text-anchor="middle" x="325" y="-99.8" font-family="Times,serif" font-size="14.00" fill="#000000">MensajeService</text>
</g>
<!-- MensajeService&#45;&gt;ServicesModule -->
<g id="edge6" class="edge">
<title>MensajeService&#45;&gt;ServicesModule</title>
<path fill="none" stroke="#000000" d="M325,-122.1061C325,-141.3391 325,-169 325,-169 325,-169 634.161,-169 634.161,-169"/>
<polygon fill="#000000" stroke="#000000" points="634.161,-172.5001 644.161,-169 634.1609,-165.5001 634.161,-172.5001"/>
</g>
<!-- PruebaAdmisionService -->
<g id="node7" class="node">
<title>PruebaAdmisionService</title>
<ellipse fill="#fdb462" stroke="#000000" cx="129" cy="-104" rx="104.7945" ry="18"/>
<text text-anchor="middle" x="129" y="-99.8" font-family="Times,serif" font-size="14.00" fill="#000000">PruebaAdmisionService</text>
</g>
<!-- PruebaAdmisionService&#45;&gt;ServicesModule -->
<g id="edge7" class="edge">
<title>PruebaAdmisionService&#45;&gt;ServicesModule</title>
<path fill="none" stroke="#000000" d="M129,-122.2921C129,-144.2057 129,-178 129,-178 129,-178 634.4699,-178 634.4699,-178"/>
<polygon fill="#000000" stroke="#000000" points="634.4699,-181.5001 644.4699,-178 634.4698,-174.5001 634.4699,-181.5001"/>
</g>
</g>
</svg>
