<?xml version="1.0" encoding="UTF-8" standalone="no"?>
<!DOCTYPE svg PUBLIC "-//W3C//DTD SVG 1.1//EN"
 "http://www.w3.org/Graphics/SVG/1.1/DTD/svg11.dtd">
<!-- Generated by graphviz version 2.40.1 (20161225.0304)
 -->
<!-- Title: dependencies Pages: 1 -->
<svg width="1001pt" height="211pt"
 viewBox="0.00 0.00 1001.00 211.00" xmlns="http://www.w3.org/2000/svg" xmlns:xlink="http://www.w3.org/1999/xlink">
<g id="graph0" class="graph" transform="scale(1 1) rotate(0) translate(4 207)">
<title>dependencies</title>
<polygon fill="#ffffff" stroke="transparent" points="-4,4 -4,-207 997,-207 997,4 -4,4"/>
<text text-anchor="start" x="475.5091" y="-42.4" font-family="sans-serif" font-weight="bold" font-size="14.00" fill="#000000">Legend</text>
<polygon fill="#ffffb3" stroke="transparent" points="262.5,-10 262.5,-30 282.5,-30 282.5,-10 262.5,-10"/>
<text text-anchor="start" x="286.129" y="-15.4" font-family="sans-serif" font-size="14.00" fill="#000000"> &#160;Declarations</text>
<polygon fill="#8dd3c7" stroke="transparent" points="375.5,-10 375.5,-30 395.5,-30 395.5,-10 375.5,-10"/>
<text text-anchor="start" x="399.2251" y="-15.4" font-family="sans-serif" font-size="14.00" fill="#000000"> &#160;Module</text>
<polygon fill="#80b1d3" stroke="transparent" points="461.5,-10 461.5,-30 481.5,-30 481.5,-10 461.5,-10"/>
<text text-anchor="start" x="485.2812" y="-15.4" font-family="sans-serif" font-size="14.00" fill="#000000"> &#160;Bootstrap</text>
<polygon fill="#fdb462" stroke="transparent" points="558.5,-10 558.5,-30 578.5,-30 578.5,-10 558.5,-10"/>
<text text-anchor="start" x="582.1732" y="-15.4" font-family="sans-serif" font-size="14.00" fill="#000000"> &#160;Providers</text>
<polygon fill="#fb8072" stroke="transparent" points="654.5,-10 654.5,-30 674.5,-30 674.5,-10 654.5,-10"/>
<text text-anchor="start" x="678.2258" y="-15.4" font-family="sans-serif" font-size="14.00" fill="#000000"> &#160;Exports</text>
<g id="clust1" class="cluster">
<title>cluster_HojaDeVidaModule</title>
<polygon fill="none" stroke="#000000" stroke-dasharray="1,5" points="8,-70 8,-195 985,-195 985,-70 8,-70"/>
</g>
<g id="clust2" class="cluster">
<title>cluster_HojaDeVidaModule_declarations</title>
<polygon fill="none" stroke="#000000" points="216,-78 216,-130 977,-130 977,-78 216,-78"/>
</g>
<g id="clust7" class="cluster">
<title>cluster_HojaDeVidaModule_imports</title>
<polygon fill="none" stroke="#000000" points="16,-78 16,-130 208,-130 208,-78 16,-78"/>
</g>
<!-- ExperienciaLaboralComponent -->
<g id="node1" class="node">
<title>ExperienciaLaboralComponent</title>
<polygon fill="#ffffb3" stroke="#000000" points="968.7184,-122 777.2816,-122 777.2816,-86 968.7184,-86 968.7184,-122"/>
<text text-anchor="middle" x="873" y="-99.8" font-family="Times,serif" font-size="14.00" fill="#000000">ExperienciaLaboralComponent</text>
</g>
<!-- HojaDeVidaModule -->
<g id="node5" class="node">
<title>HojaDeVidaModule</title>
<polygon fill="#8dd3c7" stroke="#000000" points="517.2949,-187 514.2949,-191 493.2949,-191 490.2949,-187 386.7051,-187 386.7051,-151 517.2949,-151 517.2949,-187"/>
<text text-anchor="middle" x="452" y="-164.8" font-family="Times,serif" font-size="14.00" fill="#000000">HojaDeVidaModule</text>
</g>
<!-- ExperienciaLaboralComponent&#45;&gt;HojaDeVidaModule -->
<g id="edge1" class="edge">
<title>ExperienciaLaboralComponent&#45;&gt;HojaDeVidaModule</title>
<path fill="none" stroke="#000000" d="M873,-122.2843C873,-143.3211 873,-175 873,-175 873,-175 527.3193,-175 527.3193,-175"/>
<polygon fill="#000000" stroke="#000000" points="527.3194,-171.5001 517.3193,-175 527.3193,-178.5001 527.3194,-171.5001"/>
</g>
<!-- FormacionAcademicaComponent -->
<g id="node2" class="node">
<title>FormacionAcademicaComponent</title>
<polygon fill="#ffffb3" stroke="#000000" points="759.4468,-122 554.5532,-122 554.5532,-86 759.4468,-86 759.4468,-122"/>
<text text-anchor="middle" x="657" y="-99.8" font-family="Times,serif" font-size="14.00" fill="#000000">FormacionAcademicaComponent</text>
</g>
<!-- FormacionAcademicaComponent&#45;&gt;HojaDeVidaModule -->
<g id="edge2" class="edge">
<title>FormacionAcademicaComponent&#45;&gt;HojaDeVidaModule</title>
<path fill="none" stroke="#000000" d="M657,-122.0225C657,-139.3734 657,-163 657,-163 657,-163 527.4269,-163 527.4269,-163"/>
<polygon fill="#000000" stroke="#000000" points="527.4269,-159.5001 517.4269,-163 527.4269,-166.5001 527.4269,-159.5001"/>
</g>
<!-- NucleoFamiliarComponent -->
<g id="node3" class="node">
<title>NucleoFamiliarComponent</title>
<polygon fill="#ffffb3" stroke="#000000" points="536.6937,-122 367.3063,-122 367.3063,-86 536.6937,-86 536.6937,-122"/>
<text text-anchor="middle" x="452" y="-99.8" font-family="Times,serif" font-size="14.00" fill="#000000">NucleoFamiliarComponent</text>
</g>
<!-- NucleoFamiliarComponent&#45;&gt;HojaDeVidaModule -->
<g id="edge3" class="edge">
<title>NucleoFamiliarComponent&#45;&gt;HojaDeVidaModule</title>
<path fill="none" stroke="#000000" d="M430.2842,-122.1061C430.2842,-122.1061 430.2842,-140.991 430.2842,-140.991"/>
<polygon fill="#000000" stroke="#000000" points="426.7843,-140.9909 430.2842,-150.991 433.7843,-140.991 426.7843,-140.9909"/>
</g>
<!-- NucleoFamiliarComponent&#45;&gt;HojaDeVidaModule -->
<g id="edge4" class="edge">
<title>NucleoFamiliarComponent&#45;&gt;HojaDeVidaModule</title>
<path fill="none" stroke="#000000" d="M473.7158,-122.1061C473.7158,-122.1061 473.7158,-140.991 473.7158,-140.991"/>
<polygon fill="#000000" stroke="#000000" points="470.2159,-140.9909 473.7158,-150.991 477.2159,-140.991 470.2159,-140.9909"/>
</g>
<!-- PersonaComponent -->
<g id="node4" class="node">
<title>PersonaComponent</title>
<polygon fill="#ffffb3" stroke="#000000" points="349.6499,-122 224.3501,-122 224.3501,-86 349.6499,-86 349.6499,-122"/>
<text text-anchor="middle" x="287" y="-99.8" font-family="Times,serif" font-size="14.00" fill="#000000">PersonaComponent</text>
</g>
<!-- PersonaComponent&#45;&gt;HojaDeVidaModule -->
<g id="edge5" class="edge">
<title>PersonaComponent&#45;&gt;HojaDeVidaModule</title>
<path fill="none" stroke="#000000" d="M287,-122.0225C287,-139.3734 287,-163 287,-163 287,-163 376.7876,-163 376.7876,-163"/>
<polygon fill="#000000" stroke="#000000" points="376.7877,-166.5001 386.7876,-163 376.7876,-159.5001 376.7877,-166.5001"/>
</g>
<!-- HojaDeVidaRoutingModule -->
<g id="node6" class="node">
<title>HojaDeVidaRoutingModule</title>
<polygon fill="#8dd3c7" stroke="#000000" points="199.9129,-122 196.9129,-126 175.9129,-126 172.9129,-122 24.0871,-122 24.0871,-86 199.9129,-86 199.9129,-122"/>
<text text-anchor="middle" x="112" y="-99.8" font-family="Times,serif" font-size="14.00" fill="#000000">HojaDeVidaRoutingModule</text>
</g>
<!-- HojaDeVidaRoutingModule&#45;&gt;HojaDeVidaModule -->
<g id="edge6" class="edge">
<title>HojaDeVidaRoutingModule&#45;&gt;HojaDeVidaModule</title>
<path fill="none" stroke="#000000" d="M112,-122.2843C112,-143.3211 112,-175 112,-175 112,-175 376.8469,-175 376.8469,-175"/>
<polygon fill="#000000" stroke="#000000" points="376.8469,-178.5001 386.8469,-175 376.8468,-171.5001 376.8469,-178.5001"/>
</g>
</g>
</svg>
