<?xml version="1.0" encoding="UTF-8" standalone="no"?>
<!DOCTYPE svg PUBLIC "-//W3C//DTD SVG 1.1//EN"
 "http://www.w3.org/Graphics/SVG/1.1/DTD/svg11.dtd">
<!-- Generated by graphviz version 2.40.1 (20161225.0304)
 -->
<!-- Title: dependencies Pages: 1 -->
<svg width="504pt" height="211pt"
 viewBox="0.00 0.00 504.00 211.00" xmlns="http://www.w3.org/2000/svg" xmlns:xlink="http://www.w3.org/1999/xlink">
<g id="graph0" class="graph" transform="scale(1 1) rotate(0) translate(4 207)">
<title>dependencies</title>
<polygon fill="#ffffff" stroke="transparent" points="-4,4 -4,-207 500,-207 500,4 -4,4"/>
<text text-anchor="start" x="227.0091" y="-42.4" font-family="sans-serif" font-weight="bold" font-size="14.00" fill="#000000">Legend</text>
<polygon fill="#ffffb3" stroke="transparent" points="14,-10 14,-30 34,-30 34,-10 14,-10"/>
<text text-anchor="start" x="37.629" y="-15.4" font-family="sans-serif" font-size="14.00" fill="#000000"> &#160;Declarations</text>
<polygon fill="#8dd3c7" stroke="transparent" points="127,-10 127,-30 147,-30 147,-10 127,-10"/>
<text text-anchor="start" x="150.7251" y="-15.4" font-family="sans-serif" font-size="14.00" fill="#000000"> &#160;Module</text>
<polygon fill="#80b1d3" stroke="transparent" points="213,-10 213,-30 233,-30 233,-10 213,-10"/>
<text text-anchor="start" x="236.7812" y="-15.4" font-family="sans-serif" font-size="14.00" fill="#000000"> &#160;Bootstrap</text>
<polygon fill="#fdb462" stroke="transparent" points="310,-10 310,-30 330,-30 330,-10 310,-10"/>
<text text-anchor="start" x="333.6732" y="-15.4" font-family="sans-serif" font-size="14.00" fill="#000000"> &#160;Providers</text>
<polygon fill="#fb8072" stroke="transparent" points="406,-10 406,-30 426,-30 426,-10 406,-10"/>
<text text-anchor="start" x="429.7258" y="-15.4" font-family="sans-serif" font-size="14.00" fill="#000000"> &#160;Exports</text>
<g id="clust1" class="cluster">
<title>cluster_WidgetsModule</title>
<polygon fill="none" stroke="#000000" stroke-dasharray="1,5" points="80,-70 80,-195 416,-195 416,-70 80,-70"/>
</g>
<g id="clust2" class="cluster">
<title>cluster_WidgetsModule_declarations</title>
<polygon fill="none" stroke="#000000" points="264,-78 264,-130 408,-130 408,-78 264,-78"/>
</g>
<g id="clust4" class="cluster">
<title>cluster_WidgetsModule_imports</title>
<polygon fill="none" stroke="#000000" points="88,-78 88,-130 256,-130 256,-78 88,-78"/>
</g>
<!-- WidgetsComponent -->
<g id="node1" class="node">
<title>WidgetsComponent</title>
<polygon fill="#ffffb3" stroke="#000000" points="399.9874,-122 272.0126,-122 272.0126,-86 399.9874,-86 399.9874,-122"/>
<text text-anchor="middle" x="336" y="-99.8" font-family="Times,serif" font-size="14.00" fill="#000000">WidgetsComponent</text>
</g>
<!-- WidgetsModule -->
<g id="node2" class="node">
<title>WidgetsModule</title>
<polygon fill="#8dd3c7" stroke="#000000" points="307.205,-187 304.205,-191 283.205,-191 280.205,-187 200.795,-187 200.795,-151 307.205,-151 307.205,-187"/>
<text text-anchor="middle" x="254" y="-164.8" font-family="Times,serif" font-size="14.00" fill="#000000">WidgetsModule</text>
</g>
<!-- WidgetsComponent&#45;&gt;WidgetsModule -->
<g id="edge1" class="edge">
<title>WidgetsComponent&#45;&gt;WidgetsModule</title>
<path fill="none" stroke="#000000" d="M289.5544,-122.1061C289.5544,-122.1061 289.5544,-140.991 289.5544,-140.991"/>
<polygon fill="#000000" stroke="#000000" points="286.0544,-140.9909 289.5544,-150.991 293.0544,-140.991 286.0544,-140.9909"/>
</g>
<!-- WidgetsRoutingModule -->
<g id="node3" class="node">
<title>WidgetsRoutingModule</title>
<polygon fill="#8dd3c7" stroke="#000000" points="247.8229,-122 244.8229,-126 223.8229,-126 220.8229,-122 96.1771,-122 96.1771,-86 247.8229,-86 247.8229,-122"/>
<text text-anchor="middle" x="172" y="-99.8" font-family="Times,serif" font-size="14.00" fill="#000000">WidgetsRoutingModule</text>
</g>
<!-- WidgetsRoutingModule&#45;&gt;WidgetsModule -->
<g id="edge2" class="edge">
<title>WidgetsRoutingModule&#45;&gt;WidgetsModule</title>
<path fill="none" stroke="#000000" d="M224.2795,-122.1061C224.2795,-122.1061 224.2795,-140.991 224.2795,-140.991"/>
<polygon fill="#000000" stroke="#000000" points="220.7795,-140.9909 224.2795,-150.991 227.7795,-140.991 220.7795,-140.9909"/>
</g>
</g>
</svg>
