<?xml version="1.0" encoding="UTF-8" standalone="no"?>
<!DOCTYPE svg PUBLIC "-//W3C//DTD SVG 1.1//EN"
 "http://www.w3.org/Graphics/SVG/1.1/DTD/svg11.dtd">
<!-- Generated by graphviz version 2.40.1 (20161225.0304)
 -->
<!-- Title: dependencies Pages: 1 -->
<svg width="504pt" height="211pt"
 viewBox="0.00 0.00 504.00 211.00" xmlns="http://www.w3.org/2000/svg" xmlns:xlink="http://www.w3.org/1999/xlink">
<g id="graph0" class="graph" transform="scale(1 1) rotate(0) translate(4 207)">
<title>dependencies</title>
<polygon fill="#ffffff" stroke="transparent" points="-4,4 -4,-207 500,-207 500,4 -4,4"/>
<text text-anchor="start" x="227.0091" y="-42.4" font-family="sans-serif" font-weight="bold" font-size="14.00" fill="#000000">Legend</text>
<polygon fill="#ffffb3" stroke="transparent" points="14,-10 14,-30 34,-30 34,-10 14,-10"/>
<text text-anchor="start" x="37.629" y="-15.4" font-family="sans-serif" font-size="14.00" fill="#000000"> &#160;Declarations</text>
<polygon fill="#8dd3c7" stroke="transparent" points="127,-10 127,-30 147,-30 147,-10 127,-10"/>
<text text-anchor="start" x="150.7251" y="-15.4" font-family="sans-serif" font-size="14.00" fill="#000000"> &#160;Module</text>
<polygon fill="#80b1d3" stroke="transparent" points="213,-10 213,-30 233,-30 233,-10 213,-10"/>
<text text-anchor="start" x="236.7812" y="-15.4" font-family="sans-serif" font-size="14.00" fill="#000000"> &#160;Bootstrap</text>
<polygon fill="#fdb462" stroke="transparent" points="310,-10 310,-30 330,-30 330,-10 310,-10"/>
<text text-anchor="start" x="333.6732" y="-15.4" font-family="sans-serif" font-size="14.00" fill="#000000"> &#160;Providers</text>
<polygon fill="#fb8072" stroke="transparent" points="406,-10 406,-30 426,-30 426,-10 406,-10"/>
<text text-anchor="start" x="429.7258" y="-15.4" font-family="sans-serif" font-size="14.00" fill="#000000"> &#160;Exports</text>
<g id="clust1" class="cluster">
<title>cluster_ViewsModule</title>
<polygon fill="none" stroke="#000000" stroke-dasharray="1,5" points="78,-70 78,-195 418,-195 418,-70 78,-70"/>
</g>
<g id="clust2" class="cluster">
<title>cluster_ViewsModule_declarations</title>
<polygon fill="none" stroke="#000000" points="222,-78 222,-130 410,-130 410,-78 222,-78"/>
</g>
<g id="clust4" class="cluster">
<title>cluster_ViewsModule_imports</title>
<polygon fill="none" stroke="#000000" points="86,-78 86,-130 214,-130 214,-78 86,-78"/>
</g>
<!-- ProcesoArchivoComponent -->
<g id="node1" class="node">
<title>ProcesoArchivoComponent</title>
<polygon fill="#ffffb3" stroke="#000000" points="401.5225,-122 230.4775,-122 230.4775,-86 401.5225,-86 401.5225,-122"/>
<text text-anchor="middle" x="316" y="-99.8" font-family="Times,serif" font-size="14.00" fill="#000000">ProcesoArchivoComponent</text>
</g>
<!-- ViewsModule -->
<g id="node2" class="node">
<title>ViewsModule</title>
<polygon fill="#8dd3c7" stroke="#000000" points="280.8133,-187 277.8133,-191 256.8133,-191 253.8133,-187 185.1867,-187 185.1867,-151 280.8133,-151 280.8133,-187"/>
<text text-anchor="middle" x="233" y="-164.8" font-family="Times,serif" font-size="14.00" fill="#000000">ViewsModule</text>
</g>
<!-- ProcesoArchivoComponent&#45;&gt;ViewsModule -->
<g id="edge1" class="edge">
<title>ProcesoArchivoComponent&#45;&gt;ViewsModule</title>
<path fill="none" stroke="#000000" d="M255.4478,-122.1061C255.4478,-122.1061 255.4478,-140.991 255.4478,-140.991"/>
<polygon fill="#000000" stroke="#000000" points="251.9478,-140.9909 255.4478,-150.991 258.9478,-140.991 251.9478,-140.9909"/>
</g>
<!-- DirectiveModule -->
<g id="node3" class="node">
<title>DirectiveModule</title>
<polygon fill="#8dd3c7" stroke="#000000" points="205.6332,-122 202.6332,-126 181.6332,-126 178.6332,-122 94.3668,-122 94.3668,-86 205.6332,-86 205.6332,-122"/>
<text text-anchor="middle" x="150" y="-99.8" font-family="Times,serif" font-size="14.00" fill="#000000">DirectiveModule</text>
</g>
<!-- DirectiveModule&#45;&gt;ViewsModule -->
<g id="edge2" class="edge">
<title>DirectiveModule&#45;&gt;ViewsModule</title>
<path fill="none" stroke="#000000" d="M195.58,-122.1061C195.58,-122.1061 195.58,-140.991 195.58,-140.991"/>
<polygon fill="#000000" stroke="#000000" points="192.08,-140.9909 195.58,-150.991 199.08,-140.991 192.08,-140.9909"/>
</g>
</g>
</svg>
