<?xml version="1.0" encoding="UTF-8" standalone="no"?>
<!DOCTYPE svg PUBLIC "-//W3C//DTD SVG 1.1//EN"
 "http://www.w3.org/Graphics/SVG/1.1/DTD/svg11.dtd">
<!-- Generated by graphviz version 2.40.1 (20161225.0304)
 -->
<!-- Title: dependencies Pages: 1 -->
<svg width="504pt" height="211pt"
 viewBox="0.00 0.00 504.00 211.00" xmlns="http://www.w3.org/2000/svg" xmlns:xlink="http://www.w3.org/1999/xlink">
<g id="graph0" class="graph" transform="scale(1 1) rotate(0) translate(4 207)">
<title>dependencies</title>
<polygon fill="#ffffff" stroke="transparent" points="-4,4 -4,-207 500,-207 500,4 -4,4"/>
<text text-anchor="start" x="227.0091" y="-42.4" font-family="sans-serif" font-weight="bold" font-size="14.00" fill="#000000">Legend</text>
<polygon fill="#ffffb3" stroke="transparent" points="14,-10 14,-30 34,-30 34,-10 14,-10"/>
<text text-anchor="start" x="37.629" y="-15.4" font-family="sans-serif" font-size="14.00" fill="#000000"> &#160;Declarations</text>
<polygon fill="#8dd3c7" stroke="transparent" points="127,-10 127,-30 147,-30 147,-10 127,-10"/>
<text text-anchor="start" x="150.7251" y="-15.4" font-family="sans-serif" font-size="14.00" fill="#000000"> &#160;Module</text>
<polygon fill="#80b1d3" stroke="transparent" points="213,-10 213,-30 233,-30 233,-10 213,-10"/>
<text text-anchor="start" x="236.7812" y="-15.4" font-family="sans-serif" font-size="14.00" fill="#000000"> &#160;Bootstrap</text>
<polygon fill="#fdb462" stroke="transparent" points="310,-10 310,-30 330,-30 330,-10 310,-10"/>
<text text-anchor="start" x="333.6732" y="-15.4" font-family="sans-serif" font-size="14.00" fill="#000000"> &#160;Providers</text>
<polygon fill="#fb8072" stroke="transparent" points="406,-10 406,-30 426,-30 426,-10 406,-10"/>
<text text-anchor="start" x="429.7258" y="-15.4" font-family="sans-serif" font-size="14.00" fill="#000000"> &#160;Exports</text>
<g id="clust1" class="cluster">
<title>cluster_PruebasModule</title>
<polygon fill="none" stroke="#000000" stroke-dasharray="1,5" points="101,-70 101,-195 395,-195 395,-70 101,-70"/>
</g>
<g id="clust2" class="cluster">
<title>cluster_PruebasModule_declarations</title>
<polygon fill="none" stroke="#000000" points="245,-78 245,-130 387,-130 387,-78 245,-78"/>
</g>
<g id="clust4" class="cluster">
<title>cluster_PruebasModule_imports</title>
<polygon fill="none" stroke="#000000" points="109,-78 109,-130 237,-130 237,-78 109,-78"/>
</g>
<!-- PruebasComponent -->
<g id="node1" class="node">
<title>PruebasComponent</title>
<polygon fill="#ffffb3" stroke="#000000" points="378.6499,-122 253.3501,-122 253.3501,-86 378.6499,-86 378.6499,-122"/>
<text text-anchor="middle" x="316" y="-99.8" font-family="Times,serif" font-size="14.00" fill="#000000">PruebasComponent</text>
</g>
<!-- PruebasModule -->
<g id="node2" class="node">
<title>PruebasModule</title>
<polygon fill="#8dd3c7" stroke="#000000" points="295.8669,-187 292.8669,-191 271.8669,-191 268.8669,-187 192.1331,-187 192.1331,-151 295.8669,-151 295.8669,-187"/>
<text text-anchor="middle" x="244" y="-164.8" font-family="Times,serif" font-size="14.00" fill="#000000">PruebasModule</text>
</g>
<!-- PruebasComponent&#45;&gt;PruebasModule -->
<g id="edge1" class="edge">
<title>PruebasComponent&#45;&gt;PruebasModule</title>
<path fill="none" stroke="#000000" d="M274.5544,-122.1061C274.5544,-122.1061 274.5544,-140.991 274.5544,-140.991"/>
<polygon fill="#000000" stroke="#000000" points="271.0544,-140.9909 274.5544,-150.991 278.0544,-140.991 271.0544,-140.9909"/>
</g>
<!-- DirectiveModule -->
<g id="node3" class="node">
<title>DirectiveModule</title>
<polygon fill="#8dd3c7" stroke="#000000" points="228.6332,-122 225.6332,-126 204.6332,-126 201.6332,-122 117.3668,-122 117.3668,-86 228.6332,-86 228.6332,-122"/>
<text text-anchor="middle" x="173" y="-99.8" font-family="Times,serif" font-size="14.00" fill="#000000">DirectiveModule</text>
</g>
<!-- DirectiveModule&#45;&gt;PruebasModule -->
<g id="edge2" class="edge">
<title>DirectiveModule&#45;&gt;PruebasModule</title>
<path fill="none" stroke="#000000" d="M210.4415,-122.1061C210.4415,-122.1061 210.4415,-140.991 210.4415,-140.991"/>
<polygon fill="#000000" stroke="#000000" points="206.9415,-140.9909 210.4415,-150.991 213.9415,-140.991 206.9415,-140.9909"/>
</g>
</g>
</svg>
