<?xml version="1.0" encoding="UTF-8" standalone="no"?>
<!DOCTYPE svg PUBLIC "-//W3C//DTD SVG 1.1//EN"
 "http://www.w3.org/Graphics/SVG/1.1/DTD/svg11.dtd">
<!-- Generated by graphviz version 2.40.1 (20161225.0304)
 -->
<!-- Title: dependencies Pages: 1 -->
<svg width="504pt" height="284pt"
 viewBox="0.00 0.00 504.00 284.00" xmlns="http://www.w3.org/2000/svg" xmlns:xlink="http://www.w3.org/1999/xlink">
<g id="graph0" class="graph" transform="scale(1 1) rotate(0) translate(4 280)">
<title>dependencies</title>
<polygon fill="#ffffff" stroke="transparent" points="-4,4 -4,-280 500,-280 500,4 -4,4"/>
<text text-anchor="start" x="227.0091" y="-42.4" font-family="sans-serif" font-weight="bold" font-size="14.00" fill="#000000">Legend</text>
<polygon fill="#ffffb3" stroke="transparent" points="14,-10 14,-30 34,-30 34,-10 14,-10"/>
<text text-anchor="start" x="37.629" y="-15.4" font-family="sans-serif" font-size="14.00" fill="#000000"> &#160;Declarations</text>
<polygon fill="#8dd3c7" stroke="transparent" points="127,-10 127,-30 147,-30 147,-10 127,-10"/>
<text text-anchor="start" x="150.7251" y="-15.4" font-family="sans-serif" font-size="14.00" fill="#000000"> &#160;Module</text>
<polygon fill="#80b1d3" stroke="transparent" points="213,-10 213,-30 233,-30 233,-10 213,-10"/>
<text text-anchor="start" x="236.7812" y="-15.4" font-family="sans-serif" font-size="14.00" fill="#000000"> &#160;Bootstrap</text>
<polygon fill="#fdb462" stroke="transparent" points="310,-10 310,-30 330,-30 330,-10 310,-10"/>
<text text-anchor="start" x="333.6732" y="-15.4" font-family="sans-serif" font-size="14.00" fill="#000000"> &#160;Providers</text>
<polygon fill="#fb8072" stroke="transparent" points="406,-10 406,-30 426,-30 426,-10 406,-10"/>
<text text-anchor="start" x="429.7258" y="-15.4" font-family="sans-serif" font-size="14.00" fill="#000000"> &#160;Exports</text>
<g id="clust1" class="cluster">
<title>cluster_DirectiveModule</title>
<polygon fill="none" stroke="#000000" stroke-dasharray="1,5" points="85,-70 85,-268 411,-268 411,-70 85,-70"/>
</g>
<g id="clust2" class="cluster">
<title>cluster_DirectiveModule_declarations</title>
<polygon fill="none" stroke="#000000" points="96,-78 96,-130 400,-130 400,-78 96,-78"/>
</g>
<g id="clust6" class="cluster">
<title>cluster_DirectiveModule_exports</title>
<polygon fill="none" stroke="#000000" points="93,-208 93,-260 403,-260 403,-208 93,-208"/>
</g>
<!-- NumberOnlyDirective -->
<g id="node1" class="node">
<title>NumberOnlyDirective</title>
<polygon fill="#ffffb3" stroke="#000000" points="391.9524,-122 250.0476,-122 250.0476,-86 391.9524,-86 391.9524,-122"/>
<text text-anchor="middle" x="321" y="-99.8" font-family="Times,serif" font-size="14.00" fill="#000000">NumberOnlyDirective</text>
</g>
<!-- DirectiveModule -->
<g id="node3" class="node">
<title>DirectiveModule</title>
<polygon fill="#8dd3c7" stroke="#000000" points="223.6332,-187 220.6332,-191 199.6332,-191 196.6332,-187 112.3668,-187 112.3668,-151 223.6332,-151 223.6332,-187"/>
<text text-anchor="middle" x="168" y="-164.8" font-family="Times,serif" font-size="14.00" fill="#000000">DirectiveModule</text>
</g>
<!-- NumberOnlyDirective&#45;&gt;DirectiveModule -->
<g id="edge1" class="edge">
<title>NumberOnlyDirective&#45;&gt;DirectiveModule</title>
<path fill="none" stroke="#000000" d="M344.6587,-122.0225C344.6587,-139.3734 344.6587,-163 344.6587,-163 344.6587,-163 233.8959,-163 233.8959,-163"/>
<polygon fill="#000000" stroke="#000000" points="233.896,-159.5001 223.8959,-163 233.8959,-166.5001 233.896,-159.5001"/>
</g>
<!-- UppercaseDirective -->
<g id="node2" class="node">
<title>UppercaseDirective</title>
<polygon fill="#ffffb3" stroke="#000000" points="231.6531,-122 104.3469,-122 104.3469,-86 231.6531,-86 231.6531,-122"/>
<text text-anchor="middle" x="168" y="-99.8" font-family="Times,serif" font-size="14.00" fill="#000000">UppercaseDirective</text>
</g>
<!-- UppercaseDirective&#45;&gt;DirectiveModule -->
<g id="edge2" class="edge">
<title>UppercaseDirective&#45;&gt;DirectiveModule</title>
<path fill="none" stroke="#000000" d="M168,-122.1061C168,-122.1061 168,-140.991 168,-140.991"/>
<polygon fill="#000000" stroke="#000000" points="164.5001,-140.9909 168,-150.991 171.5001,-140.991 164.5001,-140.9909"/>
</g>
<!-- NumberOnlyDirective  -->
<g id="node4" class="node">
<title>NumberOnlyDirective </title>
<polygon fill="#fb8072" stroke="#000000" points="394.9531,-252 249.0469,-252 249.0469,-216 394.9531,-216 394.9531,-252"/>
<text text-anchor="middle" x="322" y="-229.8" font-family="Times,serif" font-size="14.00" fill="#000000">NumberOnlyDirective </text>
</g>
<!-- DirectiveModule&#45;&gt;NumberOnlyDirective  -->
<g id="edge3" class="edge">
<title>DirectiveModule&#45;&gt;NumberOnlyDirective </title>
<path fill="none" stroke="#000000" stroke-dasharray="5,2" d="M223.9787,-175C258.9347,-175 297.3413,-175 297.3413,-175 297.3413,-175 297.3413,-205.9775 297.3413,-205.9775"/>
<polygon fill="#000000" stroke="#000000" points="293.8414,-205.9774 297.3413,-215.9775 300.8414,-205.9775 293.8414,-205.9774"/>
</g>
<!-- UppercaseDirective  -->
<g id="node5" class="node">
<title>UppercaseDirective </title>
<polygon fill="#fb8072" stroke="#000000" points="231.1535,-252 100.8465,-252 100.8465,-216 231.1535,-216 231.1535,-252"/>
<text text-anchor="middle" x="166" y="-229.8" font-family="Times,serif" font-size="14.00" fill="#000000">UppercaseDirective </text>
</g>
<!-- DirectiveModule&#45;&gt;UppercaseDirective  -->
<g id="edge4" class="edge">
<title>DirectiveModule&#45;&gt;UppercaseDirective </title>
<path fill="none" stroke="#000000" stroke-dasharray="5,2" d="M168,-187.1061C168,-187.1061 168,-205.991 168,-205.991"/>
<polygon fill="#000000" stroke="#000000" points="164.5001,-205.9909 168,-215.991 171.5001,-205.991 164.5001,-205.9909"/>
</g>
</g>
</svg>
