<?xml version="1.0" encoding="UTF-8" standalone="no"?>
<!DOCTYPE svg PUBLIC "-//W3C//DTD SVG 1.1//EN"
 "http://www.w3.org/Graphics/SVG/1.1/DTD/svg11.dtd">
<!-- Generated by graphviz version 2.40.1 (20161225.0304)
 -->
<!-- Title: dependencies Pages: 1 -->
<svg width="504pt" height="211pt"
 viewBox="0.00 0.00 504.00 211.00" xmlns="http://www.w3.org/2000/svg" xmlns:xlink="http://www.w3.org/1999/xlink">
<g id="graph0" class="graph" transform="scale(1 1) rotate(0) translate(4 207)">
<title>dependencies</title>
<polygon fill="#ffffff" stroke="transparent" points="-4,4 -4,-207 500,-207 500,4 -4,4"/>
<text text-anchor="start" x="227.0091" y="-42.4" font-family="sans-serif" font-weight="bold" font-size="14.00" fill="#000000">Legend</text>
<polygon fill="#ffffb3" stroke="transparent" points="14,-10 14,-30 34,-30 34,-10 14,-10"/>
<text text-anchor="start" x="37.629" y="-15.4" font-family="sans-serif" font-size="14.00" fill="#000000"> &#160;Declarations</text>
<polygon fill="#8dd3c7" stroke="transparent" points="127,-10 127,-30 147,-30 147,-10 127,-10"/>
<text text-anchor="start" x="150.7251" y="-15.4" font-family="sans-serif" font-size="14.00" fill="#000000"> &#160;Module</text>
<polygon fill="#80b1d3" stroke="transparent" points="213,-10 213,-30 233,-30 233,-10 213,-10"/>
<text text-anchor="start" x="236.7812" y="-15.4" font-family="sans-serif" font-size="14.00" fill="#000000"> &#160;Bootstrap</text>
<polygon fill="#fdb462" stroke="transparent" points="310,-10 310,-30 330,-30 330,-10 310,-10"/>
<text text-anchor="start" x="333.6732" y="-15.4" font-family="sans-serif" font-size="14.00" fill="#000000"> &#160;Providers</text>
<polygon fill="#fb8072" stroke="transparent" points="406,-10 406,-30 426,-30 426,-10 406,-10"/>
<text text-anchor="start" x="429.7258" y="-15.4" font-family="sans-serif" font-size="14.00" fill="#000000"> &#160;Exports</text>
<g id="clust1" class="cluster">
<title>cluster_LoginModule</title>
<polygon fill="none" stroke="#000000" stroke-dasharray="1,5" points="20.5,-70 20.5,-195 475.5,-195 475.5,-70 20.5,-70"/>
</g>
<g id="clust2" class="cluster">
<title>cluster_LoginModule_declarations</title>
<polygon fill="none" stroke="#000000" points="190.5,-78 190.5,-130 467.5,-130 467.5,-78 190.5,-78"/>
</g>
<g id="clust5" class="cluster">
<title>cluster_LoginModule_imports</title>
<polygon fill="none" stroke="#000000" points="28.5,-78 28.5,-130 182.5,-130 182.5,-78 28.5,-78"/>
</g>
<!-- LoginComponent -->
<g id="node1" class="node">
<title>LoginComponent</title>
<polygon fill="#ffffb3" stroke="#000000" points="459.7758,-122 345.2242,-122 345.2242,-86 459.7758,-86 459.7758,-122"/>
<text text-anchor="middle" x="402.5" y="-99.8" font-family="Times,serif" font-size="14.00" fill="#000000">LoginComponent</text>
</g>
<!-- LoginModule -->
<g id="node3" class="node">
<title>LoginModule</title>
<polygon fill="#8dd3c7" stroke="#000000" points="308.993,-187 305.993,-191 284.993,-191 281.993,-187 216.007,-187 216.007,-151 308.993,-151 308.993,-187"/>
<text text-anchor="middle" x="262.5" y="-164.8" font-family="Times,serif" font-size="14.00" fill="#000000">LoginModule</text>
</g>
<!-- LoginComponent&#45;&gt;LoginModule -->
<g id="edge1" class="edge">
<title>LoginComponent&#45;&gt;LoginModule</title>
<path fill="none" stroke="#000000" d="M402.5,-122.1061C402.5,-141.3391 402.5,-169 402.5,-169 402.5,-169 319.118,-169 319.118,-169"/>
<polygon fill="#000000" stroke="#000000" points="319.118,-165.5001 309.118,-169 319.1179,-172.5001 319.118,-165.5001"/>
</g>
<!-- RegistroComponent -->
<g id="node2" class="node">
<title>RegistroComponent</title>
<polygon fill="#ffffb3" stroke="#000000" points="326.7702,-122 198.2298,-122 198.2298,-86 326.7702,-86 326.7702,-122"/>
<text text-anchor="middle" x="262.5" y="-99.8" font-family="Times,serif" font-size="14.00" fill="#000000">RegistroComponent</text>
</g>
<!-- RegistroComponent&#45;&gt;LoginModule -->
<g id="edge2" class="edge">
<title>RegistroComponent&#45;&gt;LoginModule</title>
<path fill="none" stroke="#000000" d="M262.5,-122.1061C262.5,-122.1061 262.5,-140.991 262.5,-140.991"/>
<polygon fill="#000000" stroke="#000000" points="259.0001,-140.9909 262.5,-150.991 266.0001,-140.991 259.0001,-140.9909"/>
</g>
<!-- LoginRoutingModule -->
<g id="node4" class="node">
<title>LoginRoutingModule</title>
<polygon fill="#8dd3c7" stroke="#000000" points="174.6108,-122 171.6108,-126 150.6108,-126 147.6108,-122 36.3892,-122 36.3892,-86 174.6108,-86 174.6108,-122"/>
<text text-anchor="middle" x="105.5" y="-99.8" font-family="Times,serif" font-size="14.00" fill="#000000">LoginRoutingModule</text>
</g>
<!-- LoginRoutingModule&#45;&gt;LoginModule -->
<g id="edge3" class="edge">
<title>LoginRoutingModule&#45;&gt;LoginModule</title>
<path fill="none" stroke="#000000" d="M105.5,-122.1061C105.5,-141.3391 105.5,-169 105.5,-169 105.5,-169 205.8199,-169 205.8199,-169"/>
<polygon fill="#000000" stroke="#000000" points="205.8199,-172.5001 215.8199,-169 205.8199,-165.5001 205.8199,-172.5001"/>
</g>
</g>
</svg>
