<?xml version="1.0" encoding="UTF-8" standalone="no"?>
<!DOCTYPE svg PUBLIC "-//W3C//DTD SVG 1.1//EN"
 "http://www.w3.org/Graphics/SVG/1.1/DTD/svg11.dtd">
<!-- Generated by graphviz version 2.40.1 (20161225.0304)
 -->
<!-- Title: dependencies Pages: 1 -->
<svg width="564pt" height="211pt"
 viewBox="0.00 0.00 564.00 211.00" xmlns="http://www.w3.org/2000/svg" xmlns:xlink="http://www.w3.org/1999/xlink">
<g id="graph0" class="graph" transform="scale(1 1) rotate(0) translate(4 207)">
<title>dependencies</title>
<polygon fill="#ffffff" stroke="transparent" points="-4,4 -4,-207 560,-207 560,4 -4,4"/>
<text text-anchor="start" x="257.0091" y="-42.4" font-family="sans-serif" font-weight="bold" font-size="14.00" fill="#000000">Legend</text>
<polygon fill="#ffffb3" stroke="transparent" points="44,-10 44,-30 64,-30 64,-10 44,-10"/>
<text text-anchor="start" x="67.629" y="-15.4" font-family="sans-serif" font-size="14.00" fill="#000000"> &#160;Declarations</text>
<polygon fill="#8dd3c7" stroke="transparent" points="157,-10 157,-30 177,-30 177,-10 157,-10"/>
<text text-anchor="start" x="180.7251" y="-15.4" font-family="sans-serif" font-size="14.00" fill="#000000"> &#160;Module</text>
<polygon fill="#80b1d3" stroke="transparent" points="243,-10 243,-30 263,-30 263,-10 243,-10"/>
<text text-anchor="start" x="266.7812" y="-15.4" font-family="sans-serif" font-size="14.00" fill="#000000"> &#160;Bootstrap</text>
<polygon fill="#fdb462" stroke="transparent" points="340,-10 340,-30 360,-30 360,-10 340,-10"/>
<text text-anchor="start" x="363.6732" y="-15.4" font-family="sans-serif" font-size="14.00" fill="#000000"> &#160;Providers</text>
<polygon fill="#fb8072" stroke="transparent" points="436,-10 436,-30 456,-30 456,-10 436,-10"/>
<text text-anchor="start" x="459.7258" y="-15.4" font-family="sans-serif" font-size="14.00" fill="#000000"> &#160;Exports</text>
<g id="clust1" class="cluster">
<title>cluster_SolicitudPersonalModule</title>
<polygon fill="none" stroke="#000000" stroke-dasharray="1,5" points="8,-70 8,-195 548,-195 548,-70 8,-70"/>
</g>
<g id="clust2" class="cluster">
<title>cluster_SolicitudPersonalModule_declarations</title>
<polygon fill="none" stroke="#000000" points="244,-78 244,-130 540,-130 540,-78 244,-78"/>
</g>
<g id="clust5" class="cluster">
<title>cluster_SolicitudPersonalModule_imports</title>
<polygon fill="none" stroke="#000000" points="16,-78 16,-130 236,-130 236,-78 16,-78"/>
</g>
<!-- PersonalComponent -->
<g id="node1" class="node">
<title>PersonalComponent</title>
<polygon fill="#ffffb3" stroke="#000000" points="531.5408,-122 402.4592,-122 402.4592,-86 531.5408,-86 531.5408,-122"/>
<text text-anchor="middle" x="467" y="-99.8" font-family="Times,serif" font-size="14.00" fill="#000000">PersonalComponent</text>
</g>
<!-- SolicitudPersonalModule -->
<g id="node3" class="node">
<title>SolicitudPersonalModule</title>
<polygon fill="#8dd3c7" stroke="#000000" points="397.3173,-187 394.3173,-191 373.3173,-191 370.3173,-187 238.6827,-187 238.6827,-151 397.3173,-151 397.3173,-187"/>
<text text-anchor="middle" x="318" y="-164.8" font-family="Times,serif" font-size="14.00" fill="#000000">SolicitudPersonalModule</text>
</g>
<!-- PersonalComponent&#45;&gt;SolicitudPersonalModule -->
<g id="edge1" class="edge">
<title>PersonalComponent&#45;&gt;SolicitudPersonalModule</title>
<path fill="none" stroke="#000000" d="M402.163,-104C395.1821,-104 390.5523,-104 390.5523,-104 390.5523,-104 390.5523,-140.8939 390.5523,-140.8939"/>
<polygon fill="#000000" stroke="#000000" points="387.0523,-140.8938 390.5523,-150.8939 394.0523,-140.8939 387.0523,-140.8938"/>
</g>
<!-- SolicitudComponent -->
<g id="node2" class="node">
<title>SolicitudComponent</title>
<polygon fill="#ffffb3" stroke="#000000" points="383.892,-122 252.108,-122 252.108,-86 383.892,-86 383.892,-122"/>
<text text-anchor="middle" x="318" y="-99.8" font-family="Times,serif" font-size="14.00" fill="#000000">SolicitudComponent</text>
</g>
<!-- SolicitudComponent&#45;&gt;SolicitudPersonalModule -->
<g id="edge2" class="edge">
<title>SolicitudComponent&#45;&gt;SolicitudPersonalModule</title>
<path fill="none" stroke="#000000" d="M318,-122.1061C318,-122.1061 318,-140.991 318,-140.991"/>
<polygon fill="#000000" stroke="#000000" points="314.5001,-140.9909 318,-150.991 321.5001,-140.991 314.5001,-140.9909"/>
</g>
<!-- SolicitudPersonalRoutingModule -->
<g id="node4" class="node">
<title>SolicitudPersonalRoutingModule</title>
<polygon fill="#8dd3c7" stroke="#000000" points="227.9353,-122 224.9353,-126 203.9353,-126 200.9353,-122 24.0647,-122 24.0647,-86 227.9353,-86 227.9353,-122"/>
<text text-anchor="middle" x="126" y="-99.8" font-family="Times,serif" font-size="14.00" fill="#000000">SolicitudPersonalRoutingModule</text>
</g>
<!-- SolicitudPersonalRoutingModule&#45;&gt;SolicitudPersonalModule -->
<g id="edge3" class="edge">
<title>SolicitudPersonalRoutingModule&#45;&gt;SolicitudPersonalModule</title>
<path fill="none" stroke="#000000" d="M227.8228,-104C238.4416,-104 245.4478,-104 245.4478,-104 245.4478,-104 245.4478,-140.8939 245.4478,-140.8939"/>
<polygon fill="#000000" stroke="#000000" points="241.9478,-140.8938 245.4478,-150.8939 248.9478,-140.8939 241.9478,-140.8938"/>
</g>
</g>
</svg>
