<?xml version="1.0" encoding="UTF-8" standalone="no"?>
<!DOCTYPE svg PUBLIC "-//W3C//DTD SVG 1.1//EN"
 "http://www.w3.org/Graphics/SVG/1.1/DTD/svg11.dtd">
<!-- Generated by graphviz version 2.40.1 (20161225.0304)
 -->
<!-- Title: dependencies Pages: 1 -->
<svg width="553pt" height="211pt"
 viewBox="0.00 0.00 553.00 211.00" xmlns="http://www.w3.org/2000/svg" xmlns:xlink="http://www.w3.org/1999/xlink">
<g id="graph0" class="graph" transform="scale(1 1) rotate(0) translate(4 207)">
<title>dependencies</title>
<polygon fill="#ffffff" stroke="transparent" points="-4,4 -4,-207 549,-207 549,4 -4,4"/>
<text text-anchor="start" x="251.5091" y="-42.4" font-family="sans-serif" font-weight="bold" font-size="14.00" fill="#000000">Legend</text>
<polygon fill="#ffffb3" stroke="transparent" points="38.5,-10 38.5,-30 58.5,-30 58.5,-10 38.5,-10"/>
<text text-anchor="start" x="62.129" y="-15.4" font-family="sans-serif" font-size="14.00" fill="#000000"> &#160;Declarations</text>
<polygon fill="#8dd3c7" stroke="transparent" points="151.5,-10 151.5,-30 171.5,-30 171.5,-10 151.5,-10"/>
<text text-anchor="start" x="175.2251" y="-15.4" font-family="sans-serif" font-size="14.00" fill="#000000"> &#160;Module</text>
<polygon fill="#80b1d3" stroke="transparent" points="237.5,-10 237.5,-30 257.5,-30 257.5,-10 237.5,-10"/>
<text text-anchor="start" x="261.2812" y="-15.4" font-family="sans-serif" font-size="14.00" fill="#000000"> &#160;Bootstrap</text>
<polygon fill="#fdb462" stroke="transparent" points="334.5,-10 334.5,-30 354.5,-30 354.5,-10 334.5,-10"/>
<text text-anchor="start" x="358.1732" y="-15.4" font-family="sans-serif" font-size="14.00" fill="#000000"> &#160;Providers</text>
<polygon fill="#fb8072" stroke="transparent" points="430.5,-10 430.5,-30 450.5,-30 450.5,-10 430.5,-10"/>
<text text-anchor="start" x="454.2258" y="-15.4" font-family="sans-serif" font-size="14.00" fill="#000000"> &#160;Exports</text>
<g id="clust1" class="cluster">
<title>cluster_EvaluacionCuposModule</title>
<polygon fill="none" stroke="#000000" stroke-dasharray="1,5" points="8,-70 8,-195 537,-195 537,-70 8,-70"/>
</g>
<g id="clust2" class="cluster">
<title>cluster_EvaluacionCuposModule_declarations</title>
<polygon fill="none" stroke="#000000" points="152,-78 152,-130 529,-130 529,-78 152,-78"/>
</g>
<g id="clust5" class="cluster">
<title>cluster_EvaluacionCuposModule_imports</title>
<polygon fill="none" stroke="#000000" points="16,-78 16,-130 144,-130 144,-78 16,-78"/>
</g>
<!-- ListadoAspirantesComponent -->
<g id="node1" class="node">
<title>ListadoAspirantesComponent</title>
<polygon fill="#ffffb3" stroke="#000000" points="520.6923,-122 337.3077,-122 337.3077,-86 520.6923,-86 520.6923,-122"/>
<text text-anchor="middle" x="429" y="-99.8" font-family="Times,serif" font-size="14.00" fill="#000000">ListadoAspirantesComponent</text>
</g>
<!-- EvaluacionCuposModule -->
<g id="node3" class="node">
<title>EvaluacionCuposModule</title>
<polygon fill="#8dd3c7" stroke="#000000" points="319.3089,-187 316.3089,-191 295.3089,-191 292.3089,-187 160.6911,-187 160.6911,-151 319.3089,-151 319.3089,-187"/>
<text text-anchor="middle" x="240" y="-164.8" font-family="Times,serif" font-size="14.00" fill="#000000">EvaluacionCuposModule</text>
</g>
<!-- ListadoAspirantesComponent&#45;&gt;EvaluacionCuposModule -->
<g id="edge1" class="edge">
<title>ListadoAspirantesComponent&#45;&gt;EvaluacionCuposModule</title>
<path fill="none" stroke="#000000" d="M429,-122.1061C429,-141.3391 429,-169 429,-169 429,-169 329.3315,-169 329.3315,-169"/>
<polygon fill="#000000" stroke="#000000" points="329.3316,-165.5001 319.3315,-169 329.3315,-172.5001 329.3316,-165.5001"/>
</g>
<!-- ListadoCuposComponent -->
<g id="node2" class="node">
<title>ListadoCuposComponent</title>
<polygon fill="#ffffb3" stroke="#000000" points="319.6066,-122 160.3934,-122 160.3934,-86 319.6066,-86 319.6066,-122"/>
<text text-anchor="middle" x="240" y="-99.8" font-family="Times,serif" font-size="14.00" fill="#000000">ListadoCuposComponent</text>
</g>
<!-- ListadoCuposComponent&#45;&gt;EvaluacionCuposModule -->
<g id="edge2" class="edge">
<title>ListadoCuposComponent&#45;&gt;EvaluacionCuposModule</title>
<path fill="none" stroke="#000000" d="M240,-122.1061C240,-122.1061 240,-140.991 240,-140.991"/>
<polygon fill="#000000" stroke="#000000" points="236.5001,-140.9909 240,-150.991 243.5001,-140.991 236.5001,-140.9909"/>
</g>
<!-- DirectiveModule -->
<g id="node4" class="node">
<title>DirectiveModule</title>
<polygon fill="#8dd3c7" stroke="#000000" points="135.6332,-122 132.6332,-126 111.6332,-126 108.6332,-122 24.3668,-122 24.3668,-86 135.6332,-86 135.6332,-122"/>
<text text-anchor="middle" x="80" y="-99.8" font-family="Times,serif" font-size="14.00" fill="#000000">DirectiveModule</text>
</g>
<!-- DirectiveModule&#45;&gt;EvaluacionCuposModule -->
<g id="edge3" class="edge">
<title>DirectiveModule&#45;&gt;EvaluacionCuposModule</title>
<path fill="none" stroke="#000000" d="M80,-122.1061C80,-141.3391 80,-169 80,-169 80,-169 150.4687,-169 150.4687,-169"/>
<polygon fill="#000000" stroke="#000000" points="150.4688,-172.5001 160.4687,-169 150.4687,-165.5001 150.4688,-172.5001"/>
</g>
</g>
</svg>
