<?xml version="1.0" encoding="UTF-8" standalone="no"?>
<!DOCTYPE svg PUBLIC "-//W3C//DTD SVG 1.1//EN"
 "http://www.w3.org/Graphics/SVG/1.1/DTD/svg11.dtd">
<!-- Generated by graphviz version 2.40.1 (20161225.0304)
 -->
<!-- Title: dependencies Pages: 1 -->
<svg width="873pt" height="211pt"
 viewBox="0.00 0.00 873.00 211.00" xmlns="http://www.w3.org/2000/svg" xmlns:xlink="http://www.w3.org/1999/xlink">
<g id="graph0" class="graph" transform="scale(1 1) rotate(0) translate(4 207)">
<title>dependencies</title>
<polygon fill="#ffffff" stroke="transparent" points="-4,4 -4,-207 869,-207 869,4 -4,4"/>
<text text-anchor="start" x="411.5091" y="-42.4" font-family="sans-serif" font-weight="bold" font-size="14.00" fill="#000000">Legend</text>
<polygon fill="#ffffb3" stroke="transparent" points="198.5,-10 198.5,-30 218.5,-30 218.5,-10 198.5,-10"/>
<text text-anchor="start" x="222.129" y="-15.4" font-family="sans-serif" font-size="14.00" fill="#000000"> &#160;Declarations</text>
<polygon fill="#8dd3c7" stroke="transparent" points="311.5,-10 311.5,-30 331.5,-30 331.5,-10 311.5,-10"/>
<text text-anchor="start" x="335.2251" y="-15.4" font-family="sans-serif" font-size="14.00" fill="#000000"> &#160;Module</text>
<polygon fill="#80b1d3" stroke="transparent" points="397.5,-10 397.5,-30 417.5,-30 417.5,-10 397.5,-10"/>
<text text-anchor="start" x="421.2812" y="-15.4" font-family="sans-serif" font-size="14.00" fill="#000000"> &#160;Bootstrap</text>
<polygon fill="#fdb462" stroke="transparent" points="494.5,-10 494.5,-30 514.5,-30 514.5,-10 494.5,-10"/>
<text text-anchor="start" x="518.1732" y="-15.4" font-family="sans-serif" font-size="14.00" fill="#000000"> &#160;Providers</text>
<polygon fill="#fb8072" stroke="transparent" points="590.5,-10 590.5,-30 610.5,-30 610.5,-10 590.5,-10"/>
<text text-anchor="start" x="614.2258" y="-15.4" font-family="sans-serif" font-size="14.00" fill="#000000"> &#160;Exports</text>
<g id="clust1" class="cluster">
<title>cluster_IconsModule</title>
<polygon fill="none" stroke="#000000" stroke-dasharray="1,5" points="8,-70 8,-195 857,-195 857,-70 8,-70"/>
</g>
<g id="clust2" class="cluster">
<title>cluster_IconsModule_declarations</title>
<polygon fill="none" stroke="#000000" points="174,-78 174,-130 849,-130 849,-78 174,-78"/>
</g>
<g id="clust7" class="cluster">
<title>cluster_IconsModule_imports</title>
<polygon fill="none" stroke="#000000" points="16,-78 16,-130 166,-130 166,-78 16,-78"/>
</g>
<!-- CoreUIIconsComponent -->
<g id="node1" class="node">
<title>CoreUIIconsComponent</title>
<polygon fill="#ffffb3" stroke="#000000" points="840.6316,-122 687.3684,-122 687.3684,-86 840.6316,-86 840.6316,-122"/>
<text text-anchor="middle" x="764" y="-99.8" font-family="Times,serif" font-size="14.00" fill="#000000">CoreUIIconsComponent</text>
</g>
<!-- IconsModule -->
<g id="node5" class="node">
<title>IconsModule</title>
<polygon fill="#8dd3c7" stroke="#000000" points="502.8697,-187 499.8697,-191 478.8697,-191 475.8697,-187 413.1303,-187 413.1303,-151 502.8697,-151 502.8697,-187"/>
<text text-anchor="middle" x="458" y="-164.8" font-family="Times,serif" font-size="14.00" fill="#000000">IconsModule</text>
</g>
<!-- CoreUIIconsComponent&#45;&gt;IconsModule -->
<g id="edge1" class="edge">
<title>CoreUIIconsComponent&#45;&gt;IconsModule</title>
<path fill="none" stroke="#000000" d="M764,-122.2843C764,-143.3211 764,-175 764,-175 764,-175 513.1514,-175 513.1514,-175"/>
<polygon fill="#000000" stroke="#000000" points="513.1514,-171.5001 503.1514,-175 513.1513,-178.5001 513.1514,-171.5001"/>
</g>
<!-- FlagsComponent -->
<g id="node2" class="node">
<title>FlagsComponent</title>
<polygon fill="#ffffb3" stroke="#000000" points="668.6653,-122 557.3347,-122 557.3347,-86 668.6653,-86 668.6653,-122"/>
<text text-anchor="middle" x="613" y="-99.8" font-family="Times,serif" font-size="14.00" fill="#000000">FlagsComponent</text>
</g>
<!-- FlagsComponent&#45;&gt;IconsModule -->
<g id="edge2" class="edge">
<title>FlagsComponent&#45;&gt;IconsModule</title>
<path fill="none" stroke="#000000" d="M613,-122.0225C613,-139.3734 613,-163 613,-163 613,-163 513.2491,-163 513.2491,-163"/>
<polygon fill="#000000" stroke="#000000" points="513.2491,-159.5001 503.2491,-163 513.2491,-166.5001 513.2491,-159.5001"/>
</g>
<!-- FontAwesomeComponent -->
<g id="node3" class="node">
<title>FontAwesomeComponent</title>
<polygon fill="#ffffb3" stroke="#000000" points="539.4832,-122 376.5168,-122 376.5168,-86 539.4832,-86 539.4832,-122"/>
<text text-anchor="middle" x="458" y="-99.8" font-family="Times,serif" font-size="14.00" fill="#000000">FontAwesomeComponent</text>
</g>
<!-- FontAwesomeComponent&#45;&gt;IconsModule -->
<g id="edge3" class="edge">
<title>FontAwesomeComponent&#45;&gt;IconsModule</title>
<path fill="none" stroke="#000000" d="M458,-122.1061C458,-122.1061 458,-140.991 458,-140.991"/>
<polygon fill="#000000" stroke="#000000" points="454.5001,-140.9909 458,-150.991 461.5001,-140.991 454.5001,-140.9909"/>
</g>
<!-- SimpleLineIconsComponent -->
<g id="node4" class="node">
<title>SimpleLineIconsComponent</title>
<polygon fill="#ffffb3" stroke="#000000" points="358.479,-122 181.521,-122 181.521,-86 358.479,-86 358.479,-122"/>
<text text-anchor="middle" x="270" y="-99.8" font-family="Times,serif" font-size="14.00" fill="#000000">SimpleLineIconsComponent</text>
</g>
<!-- SimpleLineIconsComponent&#45;&gt;IconsModule -->
<g id="edge4" class="edge">
<title>SimpleLineIconsComponent&#45;&gt;IconsModule</title>
<path fill="none" stroke="#000000" d="M270,-122.0225C270,-139.3734 270,-163 270,-163 270,-163 402.9693,-163 402.9693,-163"/>
<polygon fill="#000000" stroke="#000000" points="402.9694,-166.5001 412.9693,-163 402.9693,-159.5001 402.9694,-166.5001"/>
</g>
<!-- IconsRoutingModule -->
<g id="node6" class="node">
<title>IconsRoutingModule</title>
<polygon fill="#8dd3c7" stroke="#000000" points="158.4874,-122 155.4874,-126 134.4874,-126 131.4874,-122 23.5126,-122 23.5126,-86 158.4874,-86 158.4874,-122"/>
<text text-anchor="middle" x="91" y="-99.8" font-family="Times,serif" font-size="14.00" fill="#000000">IconsRoutingModule</text>
</g>
<!-- IconsRoutingModule&#45;&gt;IconsModule -->
<g id="edge5" class="edge">
<title>IconsRoutingModule&#45;&gt;IconsModule</title>
<path fill="none" stroke="#000000" d="M91,-122.2843C91,-143.3211 91,-175 91,-175 91,-175 402.9986,-175 402.9986,-175"/>
<polygon fill="#000000" stroke="#000000" points="402.9986,-178.5001 412.9986,-175 402.9986,-171.5001 402.9986,-178.5001"/>
</g>
</g>
</svg>
