<?xml version="1.0" encoding="UTF-8" standalone="no"?>
<!DOCTYPE svg PUBLIC "-//W3C//DTD SVG 1.1//EN"
 "http://www.w3.org/Graphics/SVG/1.1/DTD/svg11.dtd">
<!-- Generated by graphviz version 2.40.1 (20161225.0304)
 -->
<!-- Title: dependencies Pages: 1 -->
<svg width="656pt" height="276pt"
 viewBox="0.00 0.00 656.00 276.00" xmlns="http://www.w3.org/2000/svg" xmlns:xlink="http://www.w3.org/1999/xlink">
<g id="graph0" class="graph" transform="scale(1 1) rotate(0) translate(4 272)">
<title>dependencies</title>
<polygon fill="#ffffff" stroke="transparent" points="-4,4 -4,-272 652,-272 652,4 -4,4"/>
<text text-anchor="start" x="303.0091" y="-42.4" font-family="sans-serif" font-weight="bold" font-size="14.00" fill="#000000">Legend</text>
<polygon fill="#ffffb3" stroke="transparent" points="90,-10 90,-30 110,-30 110,-10 90,-10"/>
<text text-anchor="start" x="113.629" y="-15.4" font-family="sans-serif" font-size="14.00" fill="#000000"> &#160;Declarations</text>
<polygon fill="#8dd3c7" stroke="transparent" points="203,-10 203,-30 223,-30 223,-10 203,-10"/>
<text text-anchor="start" x="226.7251" y="-15.4" font-family="sans-serif" font-size="14.00" fill="#000000"> &#160;Module</text>
<polygon fill="#80b1d3" stroke="transparent" points="289,-10 289,-30 309,-30 309,-10 289,-10"/>
<text text-anchor="start" x="312.7812" y="-15.4" font-family="sans-serif" font-size="14.00" fill="#000000"> &#160;Bootstrap</text>
<polygon fill="#fdb462" stroke="transparent" points="386,-10 386,-30 406,-30 406,-10 386,-10"/>
<text text-anchor="start" x="409.6732" y="-15.4" font-family="sans-serif" font-size="14.00" fill="#000000"> &#160;Providers</text>
<polygon fill="#fb8072" stroke="transparent" points="482,-10 482,-30 502,-30 502,-10 482,-10"/>
<text text-anchor="start" x="505.7258" y="-15.4" font-family="sans-serif" font-size="14.00" fill="#000000"> &#160;Exports</text>
<g id="clust1" class="cluster">
<title>cluster_NotificationsModule</title>
<polygon fill="none" stroke="#000000" stroke-dasharray="1,5" points="8,-70 8,-260 640,-260 640,-70 8,-70"/>
</g>
<g id="clust2" class="cluster">
<title>cluster_NotificationsModule_declarations</title>
<polygon fill="none" stroke="#000000" points="218,-143 218,-195 632,-195 632,-143 218,-143"/>
</g>
<g id="clust3" class="cluster">
<title>cluster_NotificationsModule_AlertsComponent_providers</title>
<polygon fill="none" stroke="#000000" points="182,-78 182,-130 632,-130 632,-78 182,-78"/>
</g>
<g id="clust6" class="cluster">
<title>cluster_NotificationsModule_imports</title>
<polygon fill="none" stroke="#000000" points="16,-143 16,-195 210,-195 210,-143 16,-143"/>
</g>
<!-- AlertsComponent -->
<g id="node1" class="node">
<title>AlertsComponent</title>
<polygon fill="#ffffb3" stroke="#000000" points="623.5409,-187 508.4591,-187 508.4591,-151 623.5409,-151 623.5409,-187"/>
<text text-anchor="middle" x="566" y="-164.8" font-family="Times,serif" font-size="14.00" fill="#000000">AlertsComponent</text>
</g>
<!-- NotificationsModule -->
<g id="node4" class="node">
<title>NotificationsModule</title>
<polygon fill="#8dd3c7" stroke="#000000" points="424.1443,-252 421.1443,-256 400.1443,-256 397.1443,-252 291.8557,-252 291.8557,-216 424.1443,-216 424.1443,-252"/>
<text text-anchor="middle" x="358" y="-229.8" font-family="Times,serif" font-size="14.00" fill="#000000">NotificationsModule</text>
</g>
<!-- AlertsComponent&#45;&gt;NotificationsModule -->
<g id="edge1" class="edge">
<title>AlertsComponent&#45;&gt;NotificationsModule</title>
<path fill="none" stroke="#000000" d="M566,-187.1061C566,-206.3391 566,-234 566,-234 566,-234 434.3844,-234 434.3844,-234"/>
<polygon fill="#000000" stroke="#000000" points="434.3844,-230.5001 424.3844,-234 434.3843,-237.5001 434.3844,-230.5001"/>
</g>
<!-- BadgesComponent -->
<g id="node2" class="node">
<title>BadgesComponent</title>
<polygon fill="#ffffb3" stroke="#000000" points="490.0436,-187 367.9564,-187 367.9564,-151 490.0436,-151 490.0436,-187"/>
<text text-anchor="middle" x="429" y="-164.8" font-family="Times,serif" font-size="14.00" fill="#000000">BadgesComponent</text>
</g>
<!-- BadgesComponent&#45;&gt;NotificationsModule -->
<g id="edge3" class="edge">
<title>BadgesComponent&#45;&gt;NotificationsModule</title>
<path fill="none" stroke="#000000" d="M396.0253,-187.1061C396.0253,-187.1061 396.0253,-205.991 396.0253,-205.991"/>
<polygon fill="#000000" stroke="#000000" points="392.5253,-205.9909 396.0253,-215.991 399.5253,-205.991 392.5253,-205.9909"/>
</g>
<!-- ModalsComponent -->
<g id="node3" class="node">
<title>ModalsComponent</title>
<polygon fill="#ffffb3" stroke="#000000" points="349.8272,-187 226.1728,-187 226.1728,-151 349.8272,-151 349.8272,-187"/>
<text text-anchor="middle" x="288" y="-164.8" font-family="Times,serif" font-size="14.00" fill="#000000">ModalsComponent</text>
</g>
<!-- ModalsComponent&#45;&gt;NotificationsModule -->
<g id="edge4" class="edge">
<title>ModalsComponent&#45;&gt;NotificationsModule</title>
<path fill="none" stroke="#000000" d="M320.6708,-187.1061C320.6708,-187.1061 320.6708,-205.991 320.6708,-205.991"/>
<polygon fill="#000000" stroke="#000000" points="317.1708,-205.9909 320.6708,-215.991 324.1708,-205.991 317.1708,-205.9909"/>
</g>
<!-- { provide: AlertConfig, useFactory: getAlertConfig } -->
<g id="node5" class="node">
<title>{ provide: AlertConfig, useFactory: getAlertConfig }</title>
<ellipse fill="#fdb462" stroke="#000000" cx="407" cy="-104" rx="217.3049" ry="18"/>
<text text-anchor="middle" x="407" y="-99.8" font-family="Times,serif" font-size="14.00" fill="#000000">{ provide: AlertConfig, useFactory: getAlertConfig }</text>
</g>
<!-- { provide: AlertConfig, useFactory: getAlertConfig }&#45;&gt;AlertsComponent -->
<g id="edge2" class="edge">
<title>{ provide: AlertConfig, useFactory: getAlertConfig }&#45;&gt;AlertsComponent</title>
<path fill="none" stroke="#000000" d="M566,-116.5327C566,-116.5327 566,-140.8507 566,-140.8507"/>
<polygon fill="#000000" stroke="#000000" points="562.5001,-140.8506 566,-150.8507 569.5001,-140.8507 562.5001,-140.8506"/>
</g>
<!-- NotificationsRoutingModule -->
<g id="node6" class="node">
<title>NotificationsRoutingModule</title>
<polygon fill="#8dd3c7" stroke="#000000" points="201.7618,-187 198.7618,-191 177.7618,-191 174.7618,-187 24.2382,-187 24.2382,-151 201.7618,-151 201.7618,-187"/>
<text text-anchor="middle" x="113" y="-164.8" font-family="Times,serif" font-size="14.00" fill="#000000">NotificationsRoutingModule</text>
</g>
<!-- NotificationsRoutingModule&#45;&gt;NotificationsModule -->
<g id="edge5" class="edge">
<title>NotificationsRoutingModule&#45;&gt;NotificationsModule</title>
<path fill="none" stroke="#000000" d="M113,-187.1061C113,-206.3391 113,-234 113,-234 113,-234 281.6995,-234 281.6995,-234"/>
<polygon fill="#000000" stroke="#000000" points="281.6995,-237.5001 291.6995,-234 281.6994,-230.5001 281.6995,-237.5001"/>
</g>
</g>
</svg>
