<?xml version="1.0" encoding="UTF-8" standalone="no"?>
<!DOCTYPE svg PUBLIC "-//W3C//DTD SVG 1.1//EN"
 "http://www.w3.org/Graphics/SVG/1.1/DTD/svg11.dtd">
<!-- Generated by graphviz version 2.40.1 (20161225.0304)
 -->
<!-- Title: dependencies Pages: 1 -->
<svg width="1791pt" height="211pt"
 viewBox="0.00 0.00 1791.00 211.00" xmlns="http://www.w3.org/2000/svg" xmlns:xlink="http://www.w3.org/1999/xlink">
<g id="graph0" class="graph" transform="scale(1 1) rotate(0) translate(4 207)">
<title>dependencies</title>
<polygon fill="#ffffff" stroke="transparent" points="-4,4 -4,-207 1787,-207 1787,4 -4,4"/>
<text text-anchor="start" x="870.5091" y="-42.4" font-family="sans-serif" font-weight="bold" font-size="14.00" fill="#000000">Legend</text>
<polygon fill="#ffffb3" stroke="transparent" points="657.5,-10 657.5,-30 677.5,-30 677.5,-10 657.5,-10"/>
<text text-anchor="start" x="681.129" y="-15.4" font-family="sans-serif" font-size="14.00" fill="#000000"> &#160;Declarations</text>
<polygon fill="#8dd3c7" stroke="transparent" points="770.5,-10 770.5,-30 790.5,-30 790.5,-10 770.5,-10"/>
<text text-anchor="start" x="794.2251" y="-15.4" font-family="sans-serif" font-size="14.00" fill="#000000"> &#160;Module</text>
<polygon fill="#80b1d3" stroke="transparent" points="856.5,-10 856.5,-30 876.5,-30 876.5,-10 856.5,-10"/>
<text text-anchor="start" x="880.2812" y="-15.4" font-family="sans-serif" font-size="14.00" fill="#000000"> &#160;Bootstrap</text>
<polygon fill="#fdb462" stroke="transparent" points="953.5,-10 953.5,-30 973.5,-30 973.5,-10 953.5,-10"/>
<text text-anchor="start" x="977.1732" y="-15.4" font-family="sans-serif" font-size="14.00" fill="#000000"> &#160;Providers</text>
<polygon fill="#fb8072" stroke="transparent" points="1049.5,-10 1049.5,-30 1069.5,-30 1069.5,-10 1049.5,-10"/>
<text text-anchor="start" x="1073.2258" y="-15.4" font-family="sans-serif" font-size="14.00" fill="#000000"> &#160;Exports</text>
<g id="clust1" class="cluster">
<title>cluster_BaseModule</title>
<polygon fill="none" stroke="#000000" stroke-dasharray="1,5" points="8,-70 8,-195 1775,-195 1775,-70 8,-70"/>
</g>
<g id="clust2" class="cluster">
<title>cluster_BaseModule_declarations</title>
<polygon fill="none" stroke="#000000" points="172,-78 172,-130 1767,-130 1767,-78 172,-78"/>
</g>
<g id="clust14" class="cluster">
<title>cluster_BaseModule_imports</title>
<polygon fill="none" stroke="#000000" points="16,-78 16,-130 164,-130 164,-78 16,-78"/>
</g>
<!-- CardsComponent -->
<g id="node1" class="node">
<title>CardsComponent</title>
<polygon fill="#ffffb3" stroke="#000000" points="1758.9888,-122 1645.0112,-122 1645.0112,-86 1758.9888,-86 1758.9888,-122"/>
<text text-anchor="middle" x="1702" y="-99.8" font-family="Times,serif" font-size="14.00" fill="#000000">CardsComponent</text>
</g>
<!-- BaseModule -->
<g id="node12" class="node">
<title>BaseModule</title>
<polygon fill="#8dd3c7" stroke="#000000" points="921.2605,-187 918.2605,-191 897.2605,-191 894.2605,-187 834.7395,-187 834.7395,-151 921.2605,-151 921.2605,-187"/>
<text text-anchor="middle" x="878" y="-164.8" font-family="Times,serif" font-size="14.00" fill="#000000">BaseModule</text>
</g>
<!-- CardsComponent&#45;&gt;BaseModule -->
<g id="edge1" class="edge">
<title>CardsComponent&#45;&gt;BaseModule</title>
<path fill="none" stroke="#000000" d="M1702,-122.0908C1702,-145.1328 1702,-182 1702,-182 1702,-182 931.4304,-182 931.4304,-182"/>
<polygon fill="#000000" stroke="#000000" points="931.4305,-178.5001 921.4304,-182 931.4304,-185.5001 931.4305,-178.5001"/>
</g>
<!-- CarouselsComponent -->
<g id="node2" class="node">
<title>CarouselsComponent</title>
<polygon fill="#ffffb3" stroke="#000000" points="1627.0394,-122 1490.9606,-122 1490.9606,-86 1627.0394,-86 1627.0394,-122"/>
<text text-anchor="middle" x="1559" y="-99.8" font-family="Times,serif" font-size="14.00" fill="#000000">CarouselsComponent</text>
</g>
<!-- CarouselsComponent&#45;&gt;BaseModule -->
<g id="edge2" class="edge">
<title>CarouselsComponent&#45;&gt;BaseModule</title>
<path fill="none" stroke="#000000" d="M1559,-122.2843C1559,-143.3211 1559,-175 1559,-175 1559,-175 931.3756,-175 931.3756,-175"/>
<polygon fill="#000000" stroke="#000000" points="931.3756,-171.5001 921.3756,-175 931.3755,-178.5001 931.3756,-171.5001"/>
</g>
<!-- CollapsesComponent -->
<g id="node3" class="node">
<title>CollapsesComponent</title>
<polygon fill="#ffffb3" stroke="#000000" points="1472.7688,-122 1337.2312,-122 1337.2312,-86 1472.7688,-86 1472.7688,-122"/>
<text text-anchor="middle" x="1405" y="-99.8" font-family="Times,serif" font-size="14.00" fill="#000000">CollapsesComponent</text>
</g>
<!-- CollapsesComponent&#45;&gt;BaseModule -->
<g id="edge3" class="edge">
<title>CollapsesComponent&#45;&gt;BaseModule</title>
<path fill="none" stroke="#000000" d="M1405,-122.1061C1405,-141.3391 1405,-169 1405,-169 1405,-169 931.575,-169 931.575,-169"/>
<polygon fill="#000000" stroke="#000000" points="931.575,-165.5001 921.575,-169 931.5749,-172.5001 931.575,-165.5001"/>
</g>
<!-- FormsComponent -->
<g id="node4" class="node">
<title>FormsComponent</title>
<polygon fill="#ffffb3" stroke="#000000" points="1319.6109,-122 1202.3891,-122 1202.3891,-86 1319.6109,-86 1319.6109,-122"/>
<text text-anchor="middle" x="1261" y="-99.8" font-family="Times,serif" font-size="14.00" fill="#000000">FormsComponent</text>
</g>
<!-- FormsComponent&#45;&gt;BaseModule -->
<g id="edge4" class="edge">
<title>FormsComponent&#45;&gt;BaseModule</title>
<path fill="none" stroke="#000000" d="M1261,-122.0225C1261,-139.3734 1261,-163 1261,-163 1261,-163 931.5621,-163 931.5621,-163"/>
<polygon fill="#000000" stroke="#000000" points="931.5621,-159.5001 921.5621,-163 931.562,-166.5001 931.5621,-159.5001"/>
</g>
<!-- PaginationsComponent -->
<g id="node5" class="node">
<title>PaginationsComponent</title>
<polygon fill="#ffffb3" stroke="#000000" points="1184.161,-122 1037.839,-122 1037.839,-86 1184.161,-86 1184.161,-122"/>
<text text-anchor="middle" x="1111" y="-99.8" font-family="Times,serif" font-size="14.00" fill="#000000">PaginationsComponent</text>
</g>
<!-- PaginationsComponent&#45;&gt;BaseModule -->
<g id="edge5" class="edge">
<title>PaginationsComponent&#45;&gt;BaseModule</title>
<path fill="none" stroke="#000000" d="M1111,-122.2396C1111,-137.5706 1111,-157 1111,-157 1111,-157 931.2795,-157 931.2795,-157"/>
<polygon fill="#000000" stroke="#000000" points="931.2795,-153.5001 921.2795,-157 931.2794,-160.5001 931.2795,-153.5001"/>
</g>
<!-- PopoversComponent -->
<g id="node6" class="node">
<title>PopoversComponent</title>
<polygon fill="#ffffb3" stroke="#000000" points="1019.9355,-122 886.0645,-122 886.0645,-86 1019.9355,-86 1019.9355,-122"/>
<text text-anchor="middle" x="953" y="-99.8" font-family="Times,serif" font-size="14.00" fill="#000000">PopoversComponent</text>
</g>
<!-- PopoversComponent&#45;&gt;BaseModule -->
<g id="edge6" class="edge">
<title>PopoversComponent&#45;&gt;BaseModule</title>
<path fill="none" stroke="#000000" d="M903.8314,-122.1061C903.8314,-122.1061 903.8314,-140.991 903.8314,-140.991"/>
<polygon fill="#000000" stroke="#000000" points="900.3314,-140.9909 903.8314,-150.991 907.3314,-140.991 900.3314,-140.9909"/>
</g>
<!-- ProgressComponent -->
<g id="node7" class="node">
<title>ProgressComponent</title>
<polygon fill="#ffffb3" stroke="#000000" points="868.5408,-122 739.4592,-122 739.4592,-86 868.5408,-86 868.5408,-122"/>
<text text-anchor="middle" x="804" y="-99.8" font-family="Times,serif" font-size="14.00" fill="#000000">ProgressComponent</text>
</g>
<!-- ProgressComponent&#45;&gt;BaseModule -->
<g id="edge7" class="edge">
<title>ProgressComponent&#45;&gt;BaseModule</title>
<path fill="none" stroke="#000000" d="M851.695,-122.1061C851.695,-122.1061 851.695,-140.991 851.695,-140.991"/>
<polygon fill="#000000" stroke="#000000" points="848.195,-140.9909 851.695,-150.991 855.195,-140.991 848.195,-140.9909"/>
</g>
<!-- SwitchesComponent -->
<g id="node8" class="node">
<title>SwitchesComponent</title>
<polygon fill="#ffffb3" stroke="#000000" points="720.8767,-122 589.1233,-122 589.1233,-86 720.8767,-86 720.8767,-122"/>
<text text-anchor="middle" x="655" y="-99.8" font-family="Times,serif" font-size="14.00" fill="#000000">SwitchesComponent</text>
</g>
<!-- SwitchesComponent&#45;&gt;BaseModule -->
<g id="edge8" class="edge">
<title>SwitchesComponent&#45;&gt;BaseModule</title>
<path fill="none" stroke="#000000" d="M655,-122.2396C655,-137.5706 655,-157 655,-157 655,-157 824.7389,-157 824.7389,-157"/>
<polygon fill="#000000" stroke="#000000" points="824.739,-160.5001 834.7389,-157 824.7389,-153.5001 824.739,-160.5001"/>
</g>
<!-- TablesComponent -->
<g id="node9" class="node">
<title>TablesComponent</title>
<polygon fill="#ffffb3" stroke="#000000" points="571.1499,-122 452.8501,-122 452.8501,-86 571.1499,-86 571.1499,-122"/>
<text text-anchor="middle" x="512" y="-99.8" font-family="Times,serif" font-size="14.00" fill="#000000">TablesComponent</text>
</g>
<!-- TablesComponent&#45;&gt;BaseModule -->
<g id="edge9" class="edge">
<title>TablesComponent&#45;&gt;BaseModule</title>
<path fill="none" stroke="#000000" d="M512,-122.0225C512,-139.3734 512,-163 512,-163 512,-163 824.5777,-163 824.5777,-163"/>
<polygon fill="#000000" stroke="#000000" points="824.5778,-166.5001 834.5777,-163 824.5777,-159.5001 824.5778,-166.5001"/>
</g>
<!-- TabsComponent -->
<g id="node10" class="node">
<title>TabsComponent</title>
<polygon fill="#ffffb3" stroke="#000000" points="434.0452,-122 325.9548,-122 325.9548,-86 434.0452,-86 434.0452,-122"/>
<text text-anchor="middle" x="380" y="-99.8" font-family="Times,serif" font-size="14.00" fill="#000000">TabsComponent</text>
</g>
<!-- TabsComponent&#45;&gt;BaseModule -->
<g id="edge10" class="edge">
<title>TabsComponent&#45;&gt;BaseModule</title>
<path fill="none" stroke="#000000" d="M380,-122.1061C380,-141.3391 380,-169 380,-169 380,-169 824.6769,-169 824.6769,-169"/>
<polygon fill="#000000" stroke="#000000" points="824.677,-172.5001 834.6769,-169 824.6769,-165.5001 824.677,-172.5001"/>
</g>
<!-- TooltipsComponent -->
<g id="node11" class="node">
<title>TooltipsComponent</title>
<polygon fill="#ffffb3" stroke="#000000" points="308.0014,-122 179.9986,-122 179.9986,-86 308.0014,-86 308.0014,-122"/>
<text text-anchor="middle" x="244" y="-99.8" font-family="Times,serif" font-size="14.00" fill="#000000">TooltipsComponent</text>
</g>
<!-- TooltipsComponent&#45;&gt;BaseModule -->
<g id="edge11" class="edge">
<title>TooltipsComponent&#45;&gt;BaseModule</title>
<path fill="none" stroke="#000000" d="M244,-122.2843C244,-143.3211 244,-175 244,-175 244,-175 824.4226,-175 824.4226,-175"/>
<polygon fill="#000000" stroke="#000000" points="824.4226,-178.5001 834.4226,-175 824.4226,-171.5001 824.4226,-178.5001"/>
</g>
<!-- BaseRoutingModule -->
<g id="node13" class="node">
<title>BaseRoutingModule</title>
<polygon fill="#8dd3c7" stroke="#000000" points="155.8781,-122 152.8781,-126 131.8781,-126 128.8781,-122 24.1219,-122 24.1219,-86 155.8781,-86 155.8781,-122"/>
<text text-anchor="middle" x="90" y="-99.8" font-family="Times,serif" font-size="14.00" fill="#000000">BaseRoutingModule</text>
</g>
<!-- BaseRoutingModule&#45;&gt;BaseModule -->
<g id="edge12" class="edge">
<title>BaseRoutingModule&#45;&gt;BaseModule</title>
<path fill="none" stroke="#000000" d="M90,-122.0908C90,-145.1328 90,-182 90,-182 90,-182 824.5113,-182 824.5113,-182"/>
<polygon fill="#000000" stroke="#000000" points="824.5113,-185.5001 834.5113,-182 824.5112,-178.5001 824.5113,-185.5001"/>
</g>
</g>
</svg>
